<svg id="Layer_1" data-name="Layer 1" xmlns="http://www.w3.org/2000/svg" xmlns:xlink="http://www.w3.org/1999/xlink" viewBox="0 0 50 50"><defs><style>.cls-1{fill:#f9f9f9;stroke:silver;stroke-miterlimit:10;}.cls-2{fill:url(#linear-gradient);}</style><linearGradient id="linear-gradient" x1="7.94" y1="15.97" x2="22" y2="15.97" gradientUnits="userSpaceOnUse"><stop offset="0.03" stop-color="#fff"/><stop offset="0.05" stop-color="#fcf9f1"/><stop offset="0.13" stop-color="#f3e8c6"/><stop offset="0.21" stop-color="#ead99f"/><stop offset="0.3" stop-color="#e3cc7f"/><stop offset="0.4" stop-color="#dec165"/><stop offset="0.5" stop-color="#d9b950"/><stop offset="0.62" stop-color="#d6b342"/><stop offset="0.76" stop-color="#d5b03a"/><stop offset="1" stop-color="#d4af37"/></linearGradient></defs><title>prize_gold</title><polygon class="cls-1" points="0 50 0 0 50 0 0 50"/><path class="cls-2" d="M16.88,17.64l.31-.7L22,10.65,20.4,8.46H9.53l-1.6,2.19,4.82,6.3.31.7a3.22,3.22,0,1,0,3.82,0Zm-5.75-7h7.68L15,15.08Zm5.24,6.32-.11.33a3.14,3.14,0,0,0-2.57,0l-.11-.33h2.8ZM15,22.06a1.82,1.82,0,1,1,1.8-1.82A1.82,1.82,0,0,1,15,22.06Z"/></svg>