<svg id="Layer_1" data-name="Layer 1" xmlns="http://www.w3.org/2000/svg" xmlns:xlink="http://www.w3.org/1999/xlink" viewBox="0 0 50 50"><defs><style>.cls-1{fill:#f9f9f9;stroke:silver;stroke-miterlimit:10;}.cls-2{fill:url(#linear-gradient);}</style><linearGradient id="linear-gradient" x1="7.94" y1="15.97" x2="22" y2="15.97" gradientUnits="userSpaceOnUse"><stop offset="0" stop-color="#fff"/><stop offset="0.1" stop-color="#ededed"/><stop offset="0.26" stop-color="#d9d9d9"/><stop offset="0.43" stop-color="#cbcbcb"/><stop offset="0.64" stop-color="#c3c3c3"/><stop offset="1" stop-color="silver"/></linearGradient></defs><title>prize_silver</title><polygon class="cls-1" points="0 50 0 0 50 0 0 50"/><path class="cls-2" d="M16.88,17.64l.31-.7L22,10.65,20.4,8.46H9.53l-1.6,2.19,4.82,6.3.31.7a3.22,3.22,0,1,0,3.82,0Zm-5.75-7h7.68L15,15.08Zm5.24,6.32-.11.33a3.14,3.14,0,0,0-2.57,0l-.11-.33h2.8ZM15,22.06a1.82,1.82,0,1,1,1.8-1.82A1.82,1.82,0,0,1,15,22.06Z"/></svg>