<svg xmlns="http://www.w3.org/2000/svg" viewBox="0 0 2800 2800"><defs><style>.cls-1{fill:#db8b1a;}.cls-2{fill:#80510f;opacity:0.3;}.cls-3,.cls-32{fill:#8fae6b;}.cls-4{fill:#5c7740;}.cls-5{fill:#314021;}.cls-6{fill:#b6d182;}.cls-25,.cls-7{fill:#f7ffff;}.cls-8{fill:#d9ffff;}.cls-9{fill:#fd5469;}.cls-10{fill:#47211e;}.cls-11{fill:#334224;}.cls-12{fill:#25211e;}.cls-13{fill:#fff7d9;}.cls-14{fill:#fb534b;}.cls-15,.cls-28{fill:#c4352d;}.cls-16{fill:#8f2721;}.cls-17{fill:#fa734e;}.cls-18{fill:#c95d3f;}.cls-19{fill:#c6342d;}.cls-20{fill:#4d1411;}.cls-21{fill:#f99490;}.cls-22{fill:#691c18;}.cls-23{fill:#4f2040;}.cls-24{fill:#8a402b;}.cls-25{opacity:0.4;}.cls-26{fill:#2b1223;}.cls-27{fill:#ffbe5a;}.cls-28{font-size:218.68px;}.cls-28,.cls-32{font-family:MarkerFelt-Wide, Marker Felt;}.cls-29{letter-spacing:0.03em;}.cls-30{letter-spacing:0.06em;}.cls-31{letter-spacing:0.05em;}.cls-32{font-size:250px;}.cls-33{letter-spacing:-0.03em;}.cls-34{letter-spacing:0.05em;}</style></defs><title>404_nani</title><g id="BASE"><path class="cls-1" d="M2800,2800H0V2314.42c935.6-115.63,1869-120.7,2800,0Z"/><path class="cls-2" d="M2488.57,2396.36C2550.82,2382.53,2588,2365,2588,2346c0-44.79-206-81.1-460.1-81.1s-460.1,36.31-460.1,81.1c0,10.87,12.13,21.24,34.13,30.71-100.76,1.35-180.13,16.19-180.13,34.29,0,19,87.35,34.39,195.1,34.39,95.49,0,175-12.09,191.8-28.07,65.17,6.24,139.84,9.78,219.2,9.78,26.24,0,52-.39,77-1.13a6.25,6.25,0,0,0-.09,1c0,19,87.35,34.39,195.1,34.39S2595,2446,2595,2427C2595,2413.63,2551.75,2402.05,2488.57,2396.36Z"/><path class="cls-2" d="M1309.9,2353.61c-26.25,0-51.29.92-74.15,2.57a22.2,22.2,0,0,0,3.25-11.24c0-52-206-94.16-460.1-94.16s-460.1,42.16-460.1,94.16c0,9.29,6.58,18.27,18.83,26.75-15.58-.71-31.9-1.08-48.73-1.08-107.75,0-195.1,15.4-195.1,34.39s87.35,34.39,195.1,34.39c86.83,0,160.4-10,185.7-23.82,81.1,14.65,187.63,23.53,304.3,23.53,144.8,0,274-13.69,358.31-35.09,32.68,10.93,97.74,18.38,172.69,18.38,107.75,0,195.1-15.4,195.1-34.39S1417.65,2353.61,1309.9,2353.61Z"/></g><g id="MONSTERS"><path class="cls-3" d="M973.37,2022.38c-13.83,57.93-17.29,51.87-15.56,76.08s8.65,51-7.78,57.93-43.23,106.34-29.39,148.7c0,0,38.9-3.46,76.08,0s80.4,47.55,80.4,47.55-28.91,24.21-80.16,0-115.23-33.72-115.23-33.72,23.34-134,15.56-161.67-5.19-38.9,8.65-61.38.86-73.49.86-73.49S936.2,1984.34,973.37,2022.38Z"/><path class="cls-4" d="M967.5,2045.7c1.71-6.39,3.66-14,5.87-23.32-37.18-38-66.57,0-66.57,0s10.93,43,2,67.44A327.69,327.69,0,0,0,967.5,2045.7Z"/><path class="cls-3" d="M589.94,2022.38c13.83,57.93,17.29,51.87,15.56,76.08s-8.65,51,7.78,57.93,43.23,106.34,29.39,148.7c0,0-38.9-3.46-76.08,0s-80.4,47.55-80.4,47.55,28.91,24.21,80.16,0,115.23-33.72,115.23-33.72-23.34-134-15.56-161.67,5.19-38.9-8.65-61.38-.86-73.49-.86-73.49S627.12,1984.34,589.94,2022.38Z"/><path class="cls-5" d="M657.38,2095.87c-13.83-22.48-.87-73.49-.87-73.49s-29.39-38-66.57,0c13.83,57.93,17.29,51.87,15.56,76.08-.72,10-2.31,20.46-2.79,29.77,9.88.84,19.75,1.5,29.55,2q19,1,38.08,1.5C670.32,2119.67,666.06,2110,657.38,2095.87Z"/><path class="cls-3" d="M1221.34,1567.62s2.5-163.69-35.15-274.7-68-275.19,51.62-315.14,227.09,115,184.44,318.63c-33.07,157.88-101.31,337.87-130.32,410.82a23,23,0,0,1-38,7.24l-247.82-263.57c-31.3-39.8-35-94.9-10.59-80.51Z"/><path class="cls-4" d="M995.47,1370.4,1010,1383v0l224.39,283.79a23,23,0,0,0,38.52-4c29.12-58.18,91.37-187.3,138.27-317.74-35.44,144.66-93.15,296.56-119.21,362.1a23,23,0,0,1-38,7.24l-247.82-263.57C974.77,1411.11,971.05,1356,995.47,1370.4Z"/><path class="cls-5" d="M1184.91,1096.62a71.09,71.09,0,0,1-33.32-45.17c-2.43-10.67-2.35-21.83-5.21-32.4s-9.73-21.11-20.35-23.8c-12.17-3.08-24.61,5.38-31.51,15.87-14.68,22.33-11.08,53.38,3.9,75.52s39.39,36.34,64.72,44.88c8.76,3,18.27,5.32,27.14,2.75s16.41-11.82,14-20.73C1201.92,1105,1192.55,1101,1184.91,1096.62Z"/><path class="cls-5" d="M1254.43,915a123.1,123.1,0,0,1,5.34,70.19c-1.81,8.25-4.68,16.64-10.69,22.57s-15.87,8.64-23.14,4.33a109.44,109.44,0,0,0-11.59-76c-3.78-6.7-8.31-13.06-10.92-20.29s-3-15.81,1.26-22.21c6.2-9.3,20.36-10.42,30.06-4.87S1250.41,904.53,1254.43,915Z"/><path class="cls-5" d="M1298.53,935.08c-1-10.26-3.17-20.5-2.56-30.8s4.48-21.05,13-26.94c14.48-10.05,36-.68,44.43,14.81s7,34.35,3.93,51.7c-3.55,19.94-9.37,40.18-22.3,55.77a62.26,62.26,0,0,1-21,16.37c-12.94,6.14-27.08-6.41-22.48-20A145.25,145.25,0,0,0,1298.53,935.08Z"/><path class="cls-5" d="M1449.13,945.39c12.57,24.4,8.12,55.55-7.85,77.87s-42,36.21-69,41.16c-8.2,1.5-17.3,2.09-24.28-2.48s-9.57-16.12-2.92-21.16a141.17,141.17,0,0,0,61.16-79.31c2.06-6.89,3.63-14.06,7.38-20.2s10.31-11.18,17.49-10.74C1439.27,931,1445.4,938.15,1449.13,945.39Z"/><path class="cls-6" d="M1312.27,1176.48c-27.09,3.49-55.37-7.62-73.75-27.83s-26.75-48.8-23.41-75.91c1.26-10.24,4.32-20.69,11.32-28.26,14.12-15.29,39.13-13.8,58.21-5.5,34.44,15,59.85,49,64.48,86.26,1.65,13.3.39,28-8.45,38.07C1333.63,1171.32,1322.85,1175.11,1312.27,1176.48Z"/><path class="cls-3" d="M280.86,1619.5s-2.5-163.69,35.15-274.7,68-275.19-51.62-315.14S37.3,1144.63,80,1348.29c33.07,157.88,101.31,337.87,130.32,410.82a23,23,0,0,0,38,7.24l247.82-263.57c31.3-39.8,35-94.9,10.59-80.51Z"/><path class="cls-3" d="M487.79,1381.7c-21.19,73.09-53.11,142.55-79.11,214.07s-46.28,146.7-42.7,222.72S399.79,1972,459.63,2019c59.38,46.66,138.73,57.83,214.14,62,91.26,5,186.36,1.37,268.18-39.35,88-43.81,152.64-128.89,178.83-223.65s15.47-197.92-22.31-288.69c-38.45-92.4-103-171.44-149.07-260.3-24.76-47.76-44.27-98.54-74.83-142.82s-75-82.62-128.33-90.06c-78.52-11-151.93,48.6-188.83,118.77S509.87,1305.55,487.79,1381.7Z"/><path class="cls-4" d="M699.19,2074c-69.13-31.8-116.58-100.15-137.74-173.24s-18.93-150.94-10.29-226.54,23.52-150.59,27.13-226.6c3.76-79.19-4.62-160,14.94-236.79s77.1-151.85,156-159.45a149,149,0,0,1,52.91,4.76c-17.22-10.15-35.95-17.27-55.91-20.06-78.52-11-151.93,48.6-188.83,118.77s-47.54,150.68-69.62,226.82c-21.19,73.09-53.11,142.55-79.11,214.07s-46.28,146.7-42.7,222.72S399.8,1972,459.63,2019c59.38,46.66,138.73,57.83,214.14,62,15.66.86,31.44,1.46,47.24,1.66A218.67,218.67,0,0,1,699.19,2074Z"/><path class="cls-7" d="M761.24,1274.67c4.68-13.77,5.48-29.48-1-42.49-5.65-11.28-16.46-19.57-28.5-23.32s-25.19-3.17-37.29.39A78.94,78.94,0,0,0,638,1291c.86,11.19,4.54,22.81,13.11,30.06,6.49,5.49,15.09,7.87,23.54,8.79a82.13,82.13,0,0,0,86.59-55.2Z"/><path class="cls-8" d="M749.68,1295.43a82.87,82.87,0,0,1-53,12.4c-8.45-.91-17-3.3-23.54-8.79-8.57-7.25-12.25-18.86-13.11-30.06A79.68,79.68,0,0,1,673,1219.32,78.7,78.7,0,0,0,638,1291c.86,11.19,4.54,22.81,13.11,30.06,6.49,5.49,15.09,7.87,23.54,8.79a81.87,81.87,0,0,0,76.78-35.61C750.85,1294.65,750.27,1295,749.68,1295.43Z"/><circle class="cls-9" cx="717.94" cy="1274.92" r="23.08" transform="translate(-482.42 438.25) rotate(-25.74)"/><circle class="cls-10" cx="717.94" cy="1274.92" r="13.58" transform="translate(-482.42 438.25) rotate(-25.74)"/><circle class="cls-7" cx="733.56" cy="1277.47" r="9.68" transform="translate(-481.97 445.3) rotate(-25.74)"/><path class="cls-7" d="M878.23,1218.67c-5.58-11.92-14.91-22.67-27.31-27.06-10.76-3.81-23-2.45-33.21,2.66s-18.42,13.73-24.08,23.64a71.42,71.42,0,0,0,14.48,88.7c7.58,6.76,17.26,12,27.4,11.38,7.68-.49,14.78-4.33,20.87-9a74.31,74.31,0,0,0,21.86-90.3Z"/><path class="cls-8" d="M869.34,1293.41c-6.09,4.7-13.19,8.54-20.87,9-10.14.65-19.82-4.62-27.4-11.38a71.42,71.42,0,0,1-14.48-88.7c.21-.37.43-.73.64-1.09a63,63,0,0,0-13.61,16.65,71.42,71.42,0,0,0,14.48,88.7c7.58,6.76,17.26,12,27.4,11.38,7.68-.49,14.78-4.33,20.87-9a74.51,74.51,0,0,0,17.48-19.36C872.39,1290.94,870.89,1292.21,869.34,1293.41Z"/><circle class="cls-9" cx="852.69" cy="1247.44" r="20.88" transform="translate(-61.22 44.13) rotate(-2.86)"/><circle class="cls-10" cx="852.69" cy="1247.44" r="12.28" transform="translate(-61.22 44.13) rotate(-2.86)"/><circle class="cls-7" cx="845.07" cy="1259.57" r="8.76" transform="translate(-61.84 43.77) rotate(-2.86)"/><path class="cls-4" d="M751.51,1361.3c-.81-.17-1.83-.42-3-.63s-2.59-.38-4.16-.52a53.71,53.71,0,0,0-11.45.21,65.57,65.57,0,0,0-14.58,3.56,75.29,75.29,0,0,0-15.9,8.14,84.54,84.54,0,0,0-15.18,13,92.09,92.09,0,0,0-6.68,8.23l-1.43,1.95c-.49.66-.92,1.17-1.38,1.76-.95,1.16-2,2.38-3,3.53a102.32,102.32,0,0,1-14.48,12.87,136.75,136.75,0,0,1-16.71,10.49c-2.9,1.54-5.81,3-8.76,4.32-1.46.69-2.93,1.34-4.41,2s-2.94,1.22-4.41,1.8c-5.87,2.32-11.7,4.23-17.3,5.89s-11,3-16,4.05c-2.51.57-4.93,1-7.24,1.48s-4.51.81-6.58,1.18c-4.15.71-7.79,1.27-10.8,1.63s-5.39.71-7,.91l-2.49.33,2.5.27c1.63.15,4,.42,7.08.59s6.77.31,11.06.36,9.12-.11,14.39-.54a167.66,167.66,0,0,0,17-2.13,162,162,0,0,0,18.73-4.42c1.6-.49,3.22-1,4.83-1.54s3.25-1.1,4.86-1.72c3.25-1.21,6.48-2.6,9.71-4.07,1.62-.74,3.22-1.53,4.82-2.33s3.19-1.66,4.75-2.58c3.16-1.76,6.24-3.7,9.25-5.76a102.7,102.7,0,0,0,16.69-14.27c1.27-1.34,2.45-2.71,3.65-4.16.58-.73,1.24-1.53,1.75-2.22l1.55-2.11a90.75,90.75,0,0,1,5.66-7.25,100.84,100.84,0,0,1,12.47-12.23c2.15-1.77,4.33-3.4,6.49-4.91s4.33-2.84,6.45-4.07a83.52,83.52,0,0,1,12.2-5.74,79.49,79.49,0,0,1,10.17-3.07c2.92-.68,5.27-1,6.9-1.25S754,1362,754,1362,753.11,1361.71,751.51,1361.3Z"/><ellipse class="cls-4" cx="757.58" cy="1417.03" rx="26.67" ry="9.24"/><path class="cls-11" d="M732.63,1420.27c3.79,3.5,13.52,6,25,6s21.16-2.5,25-6c-3.79-3.5-13.52-6-25-6S736.42,1416.77,732.63,1420.27Z"/><ellipse class="cls-6" cx="834.61" cy="1384.77" rx="23.34" ry="7.78"/><path class="cls-3" d="M916.87,1335.11a12.66,12.66,0,0,0,2.32-2.75,11.82,11.82,0,0,0,.91-1.74,4.14,4.14,0,0,0,.3-.88l0-.18.14-.3.16-.34,0-.08,0,0s.12-.13-.1.09v0l0-.13a22.27,22.27,0,0,0,.62-4.23c0-.76.06-1.55.07-2.37,0-.39,0-.88,0-1.19,0-.11,0-.5,0-.78a4.28,4.28,0,0,1,0-.58,24.9,24.9,0,0,0-.65-4.64,14.46,14.46,0,0,0-.56-1.77c0-.13-.08-.24-.13-.37l0-.12h0l-.09-.11-.12-.21-.21-.43,0-.05.11.23h0l0,0,0-.06-.07-.13a9.37,9.37,0,0,0-1.75-2.23,13.25,13.25,0,0,0-2.69-2c-.46-.29-1.14-.48-1.2-.75,0,0-.16-.05-.3-.07l-.43,0-.43-.05h-.16c.15,0-.37,0,.33,0h0l-.1,0a8.69,8.69,0,0,0-.85-.21,11.11,11.11,0,0,0-4,0,16.31,16.31,0,0,0-4,1.26,18.08,18.08,0,0,0-3.26,1.93,16.88,16.88,0,0,0-2.11,1.79c-.49.51-.77.77-.77.77l15.92,25,1-.49A13,13,0,0,0,916.87,1335.11Z"/><path class="cls-4" d="M940.77,1312.83a26.07,26.07,0,0,0-.91-5.62c-.12-.47-.29-1-.44-1.43s-.42-1.11-.64-1.65l-.43-1-.19-.38-.09-.18-.19-.35-.39-.7a24.34,24.34,0,0,0-19.4-12,24.72,24.72,0,0,0-5.78.35,2.56,2.56,0,0,0-.55.13l-.41.13-.41.14-.1,0-.05,0-.38.06h0l-.31.11a17.92,17.92,0,0,0-2.37.94,19.28,19.28,0,0,0-6.95,5.45,18.29,18.29,0,0,0-3.25,6.12,14.79,14.79,0,0,0-.64,5,11.37,11.37,0,0,0,.21,1.84,6,6,0,0,0,.34,1.28c.24.66.4,1,.4,1s.29-.26.77-.77a16.88,16.88,0,0,1,2.11-1.79,18.08,18.08,0,0,1,3.26-1.93,16.31,16.31,0,0,1,4-1.26,11.11,11.11,0,0,1,4,0,8.69,8.69,0,0,1,.85.21l.1,0h0c-.7.09-.18,0-.33,0h.16l.43.05.43,0c.14,0,.33,0,.3.07.05.27.74.46,1.2.75a13.25,13.25,0,0,1,2.69,2,9.37,9.37,0,0,1,1.75,2.23l.08.13,0,.06,0,0h0c-.25-.51-.05-.13-.1-.23l0,.05.24.43.07.21.09.11h0l0,.12c0,.13,0,.24.08.37a14.28,14.28,0,0,1,.59,1.77,24.84,24.84,0,0,1,.66,4.64,4.13,4.13,0,0,0,0,.58c0,.28,0,.66,0,.78,0,.31,0,.79,0,1.19,0,.82,0,1.61-.07,2.37a22.27,22.27,0,0,1-.62,4.23l0,.13v0c.22-.22.06,0,.1-.09l0,0,0,.08-.16.34-.14.3,0,.18a4.14,4.14,0,0,1-.3.88,11.82,11.82,0,0,1-.91,1.74,12.66,12.66,0,0,1-2.32,2.75,13,13,0,0,1-2.2,1.56l-1,.49a7.25,7.25,0,0,0,.86.71,9.29,9.29,0,0,0,2.93,1.36,12.92,12.92,0,0,0,5.27.3,15.77,15.77,0,0,0,3.28-.82,10.45,10.45,0,0,0,1.77-.8l.48-.27c.17-.1.24-.12.36-.18l.34-.16.08,0,0,0c.06-.05-.1.11.13-.13l0,0,.21-.13a22,22,0,0,0,6.08-6,27.33,27.33,0,0,0,2.26-3.91,21,21,0,0,0,.92-2.17c.16-.45.25-.64.37-.94l.37-1.16A28.75,28.75,0,0,0,940.77,1312.83Z"/><path class="cls-3" d="M622.27,1353.47c-.43.15-.86.29-1.32.46a18.42,18.42,0,0,0-3.15,1.55,16,16,0,0,0-3.07,2.4,14.32,14.32,0,0,0-2.35,3,7.94,7.94,0,0,0-1,2.94l0,.32,0,.15h0c.46-.9.12-.23.22-.43v.05l0,.1-.06.2-.24.8-.06.2,0,.13.08,0,.11,0,0,.25v.31l0,.33a16,16,0,0,0,.49,2.73,15.84,15.84,0,0,0,1,2.59,2.94,2.94,0,0,0,.29.56,3.38,3.38,0,0,0,.29.54,5.79,5.79,0,0,0,.31.52l0,.07,0,0v0c-.2-.11.45.25-.44-.24l0,0,.33.25.66.5a5,5,0,0,0,2.11,1.85,14.3,14.3,0,0,0,3.54,1.37,15.93,15.93,0,0,0,3.86.49,18.35,18.35,0,0,0,3.5-.28,21.25,21.25,0,0,0,2.5-.65l1-.31L624.42,1353s-.35.09-1,.23A9.92,9.92,0,0,0,622.27,1353.47Z"/><path class="cls-4" d="M630.87,1376.34l-1,.31a21.25,21.25,0,0,1-2.5.65,18.35,18.35,0,0,1-3.5.28,15.93,15.93,0,0,1-3.86-.49,14.3,14.3,0,0,1-3.54-1.37,5,5,0,0,1-2.11-1.85l-.66-.5-.33-.25,0,0c.89.49.24.13.44.24v0l0,0,0-.07a5.79,5.79,0,0,1-.31-.52,3.38,3.38,0,0,1-.29-.54,2.94,2.94,0,0,1-.29-.56,15.84,15.84,0,0,1-1-2.59,16,16,0,0,1-.49-2.73l0-.33v-.31l0-.25-.11,0-.08,0,0-.13.06-.2.24-.8.06-.2,0-.1v-.05c-.1.19.23-.47-.22.43h0l0-.15,0-.32a7.94,7.94,0,0,1,1-2.94,14.32,14.32,0,0,1,2.35-3,16,16,0,0,1,3.07-2.4,18.42,18.42,0,0,1,3.15-1.55c.47-.18.9-.32,1.32-.46a9.92,9.92,0,0,1,1.15-.26c.64-.13,1-.23,1-.23s-.18-.32-.53-.88a8.59,8.59,0,0,0-2-2.21,14.26,14.26,0,0,0-4.07-2.4,17.13,17.13,0,0,0-6.27-1.18,19.61,19.61,0,0,0-7.81,1.56,20.39,20.39,0,0,0-7.77,5.79l-.83,1.07-.41.55,0,0c-.47.92-.14.27-.25.48l0,0-.06.09-.12.17-.46.7-.12.18a1.4,1.4,0,0,0-.14.26l-.36.75q-.34.76-.66,1.55c-.23.56-.32.91-.48,1.38a19,19,0,0,0-.68,2.7,24.31,24.31,0,0,0,5.66,20.55,21.71,21.71,0,0,0,4.16,3.69,20.25,20.25,0,0,0,2.39,1.42l1,.56.4.13.79.25a19.95,19.95,0,0,0,17.44-1.54,17.17,17.17,0,0,0,4.78-4.24,14.28,14.28,0,0,0,2.26-4.16,10.65,10.65,0,0,0,.55-2.91A10.07,10.07,0,0,0,630.87,1376.34Z"/><path class="cls-4" d="M880.46,1388.3c0-.18,0-.35,0-.53a33,33,0,0,0-1.55-7.77,27.83,27.83,0,0,0-1.73-4.15l-.57-1.11-.48-.87-.48-.86-.12-.22,0-.05-.18-.24-.08-.12-.32-.47a50.9,50.9,0,0,0-6-7.27,82.55,82.55,0,0,0-7.24-6.4c-2.52-2-5.15-3.87-7.69-5.75l-3.74-2.74-1.91-1.42c-.55-.41-1.17-.93-1.75-1.4q-1.78-1.42-3.53-2.92c-1.18-1-2.36-2-3.48-3.07l-1.72-1.59-1.67-1.67c-1.15-1.08-2.25-2.21-3.34-3.38a144.88,144.88,0,0,1-12.31-14.92A158.61,158.61,0,0,1,810,1302.92c-.75-1.41-1.58-2.86-2.26-4.23s-1.44-2.64-2.18-4.26l-1.1-2.29-.27-.57-.07-.14c0-.05.09.22,0,.07l0-.07-.12-.27-.48-1.08c-.64-1.45-1.34-2.86-1.93-4.3-2.46-5.74-4.64-11.44-6.51-17s-3.53-10.83-4.91-15.81-2.62-9.61-3.63-13.76c-.43-1.64-.78-3.18-1.14-4.66l1.07-4.65a19.33,19.33,0,0,1,1.46-2.78c.54-.92,1.2-1.82,1.84-2.71a28.35,28.35,0,0,1,2-2.47c.75-1,1.48-1.91,2.25-3s1.58-2.28,2.42-3.61,1.68-2.82,2.49-4.43c.41-.81.77-1.62,1.18-2.55.21-.48.32-.84.48-1.25s.34-.95.51-1.42a28.66,28.66,0,0,0,1.26-5.69,24,24,0,0,0,0-5.5,18,18,0,0,0-1.18-4.64,13.82,13.82,0,0,0-1.83-3.24,8.63,8.63,0,0,0-1.68-1.74c-.42-.34-.69-.52-.69-.52s-.19.25-.48.71a13.27,13.27,0,0,1-1.29,1.77c-.57.7-1.2,1.47-2,2.25s-1.57,1.56-2.45,2.36c-1.75,1.59-3.7,3.24-5.68,5.19l-.73.72c-.27.3-.59.66-.82.89-.47.5-1,1.12-1.54,1.75a42.65,42.65,0,0,0-3.13,4.3,35.58,35.58,0,0,0-2.77,5.38,26.65,26.65,0,0,0-1.73,6.2,21.35,21.35,0,0,0-.09,6.69,19.92,19.92,0,0,0,1.71,5.7,19.07,19.07,0,0,0,1.34,2.31,15.43,15.43,0,0,0,1.55,1.86c.13.13.26.25.39.37-.25,2.16-.48,4.51-.65,7.09-.32,4.41-.41,9.4-.26,14.87a147.39,147.39,0,0,0,1.62,17.67,143.32,143.32,0,0,0,4.38,19.52c.48,1.68,1,3.36,1.6,5l.43,1.26.11.32.17.45.22.59.89,2.38c.54,1.53,1.35,3.36,2.06,5.08s1.56,3.35,2.34,5.05a130.36,130.36,0,0,0,11.5,19.35,122.63,122.63,0,0,0,14.93,17c1.36,1.3,2.73,2.57,4.15,3.77l2.13,1.79,2.19,1.7c1.44,1.15,2.93,2.22,4.42,3.26s3,2,4.53,3c.78.47,1.48.94,2.3,1.41l2.18,1.25c1.55.89,3,1.64,4.42,2.38l8.06,4.19a61.81,61.81,0,0,1,12.65,8.37l.32.28.08.07c.14.18-.15-.21-.1-.15l0,0,.17.18.68.71.66.69.45.51a23.8,23.8,0,0,1,1.84,2.33,27.85,27.85,0,0,1,2.8,5.16,23.26,23.26,0,0,1,1.29,4.13,29.43,29.43,0,0,1-1.64,4.21l-1,1.83-.56.89-.28.45-.14.23s.09-.17,0-.05l0,.06-.09.13-.71,1-.36.52-.34.41c-.44.54-.87,1.09-1.42,1.67a44.56,44.56,0,0,1-7.26,6.57,73.8,73.8,0,0,1-9.3,5.79c-1.72.89-3.47,1.79-5.29,2.66l-5.77,2.58a169.22,169.22,0,0,1-24.63,8.25c-2.17.62-4.43,1-6.65,1.51s-4.51.86-6.79,1.28c-4.57.75-9.23,1.28-13.92,1.7a160.74,160.74,0,0,1-28.48-.22c-2.36-.3-4.74-.51-7.1-.83s-4.71-.71-7-1.18-4.65-.93-6.94-1.47l-.92-.22-.79-.2c-.53-.14-1-.25-1.58-.42q-1.63-.45-3.2-1a54.26,54.26,0,0,1-11.3-5,30.83,30.83,0,0,1-4.37-3.3l-.94-.91-.87-.94a10.7,10.7,0,0,1-.81-1l-.4-.49-.1-.12.22.36-.06-.1-.24-.38-1-1.52c-.14-.24-.35-.54-.44-.72l-.19-.43c-.13-.28-.27-.56-.43-.84a1.88,1.88,0,0,1-.22-.5l-.21-.58-.45-1.16-.31-1.22c-.1-.41-.25-.81-.33-1.23l-.21-1.27a29.85,29.85,0,0,1,.35-10.51,36.83,36.83,0,0,1,9.52-18l1-1,.51-.5.44-.38c.59-.51,1.13-1,1.75-1.54l1.94-1.49,2-1.38a57.76,57.76,0,0,1,8.05-4.47,80.55,80.55,0,0,1,14.74-5c4.29-1,7.77-1.59,10.16-1.91l3.68-.48-.93-.19c-.62-.11-1.53-.34-2.73-.52a81.56,81.56,0,0,0-10.59-1,70.13,70.13,0,0,0-16.82,1.49,59.89,59.89,0,0,0-10.23,3.2c-.88.38-1.78.75-2.67,1.18l-2.68,1.39c-.91.51-1.85,1.11-2.79,1.69l-.71.44-.59.4-1.18.81a47.58,47.58,0,0,0-16.89,23,44.39,44.39,0,0,0-2.4,16.23l.12,2.18c.05.73.2,1.47.3,2.2s.24,1.48.38,2.21l.59,2.21.31,1.11a8.38,8.38,0,0,0,.38,1.16q.47,1.22,1,2.43l.52,1.21c.16.36.28.56.42.84l.82,1.6.21.4.05.1c.14.24-.25-.39.33.55l.16.25.64,1c.43.65.85,1.32,1.34,1.93s.95,1.25,1.45,1.86l1.57,1.73a49.73,49.73,0,0,0,7,6,63.94,63.94,0,0,0,7.64,4.58,79.78,79.78,0,0,0,7.94,3.36q2,.73,4,1.35c.66.22,1.38.41,2.06.62l1,.31.92.25c2.62.74,5.28,1.26,7.94,1.87s5.36,1,8,1.45,5.41.7,8.12,1a153.52,153.52,0,0,0,32.47-.43,142.47,142.47,0,0,0,15.66-2.71,138.72,138.72,0,0,0,14.9-4.19,146.45,146.45,0,0,0,26.7-12.09l5.71-3.51c1.89-1.23,3.75-2.49,5.53-3.81a78,78,0,0,0,9.83-8.54,51.48,51.48,0,0,0,7.45-9.74c.5-.82,1-1.74,1.43-2.64l.34-.67.25-.58.5-1.15.06-.14,0-.07.09-.19.12-.33.25-.66.48-1.31c.26-.88.5-1.75.72-2.6A33.77,33.77,0,0,0,880.46,1388.3Z"/><path class="cls-4" d="M757.45,1170.53l.75,1.72a21.72,21.72,0,0,1,1.33,5.2,26.25,26.25,0,0,1-.43,8.39A29.51,29.51,0,0,1,754.9,1196a33,33,0,0,1-9.12,9.4,41,41,0,0,1-13.31,6,53.66,53.66,0,0,1-7.56,1.42,60.18,60.18,0,0,1-7.83.46c-2.64,0-5.26-.13-8-.38s-5.27-.6-7.85-1c-5.21-.86-10.34-2-15.36-3s-9.94-2-14.68-2.68c-2.45-.34-4.76-.57-7.07-.8s-4.58-.37-6.8-.45c-4.43-.17-8.63-.09-12.5.15s-7.41.61-10.55,1-5.85.9-8.09,1.33-4,.8-5.18,1.1l-1.83.42s.5-.57,1.5-1.56a48.23,48.23,0,0,1,4.53-4,63.49,63.49,0,0,1,7.69-5.14,74.19,74.19,0,0,1,10.86-5.07c2.06-.79,4.25-1.44,6.54-2.12,1.14-.37,2.32-.61,3.52-.89s2.42-.53,3.67-.77,2.52-.45,3.81-.61,2.61-.32,3.94-.46,2.78-.24,4.21-.29l2-.08,1.84-.05h.46l.12-.17c.46.05.17-.14.29-.14h.07l.26.17,1,.1c.7,0,1.4.06,2.09.1,1.39.06,2.76.16,4.14.26,2.72.22,5.41.51,8,.85,5.21.68,10.16,1.52,14.72,2.23l1.7.28,1.6.25,3.5.51,2.85.36c1,.14,2,.2,3,.31a86.5,86.5,0,0,0,10.89.39c.85,0,1.63-.09,2.45-.13l2.34-.22A10.72,10.72,0,0,0,734,1193c.34-.05.82-.13,1.06-.16l.8-.06a2.1,2.1,0,0,0,.66-.19l.81-.29.81-.29.1,0,.05,0c-.72.49-.18.13-.34.24l.12,0,.23-.06,1-.24c.61-.24,1.27-.42,1.91-.7a22.31,22.31,0,0,0,3.78-1.92c.61-.37,1.19-.77,1.79-1.18s1.11-.87,1.64-1.31a26.38,26.38,0,0,0,2.91-2.85,25.45,25.45,0,0,0,4-6.08c.24-.5.4-1,.58-1.45s.38-.94.49-1.33l.36-1.19a4.83,4.83,0,0,0,.25-1.11c.21-1.38.37-2.13.37-2.13Z"/><path class="cls-4" d="M889.23,1171.35l-.94-.29c-.61-.18-1.52-.51-2.67-.75-.58-.12-1.19-.31-1.89-.41l-2.26-.31-2.58-.13c-.91,0-1.86,0-2.85,0a38.27,38.27,0,0,0-6.34.85,60.81,60.81,0,0,0-6.86,2,75,75,0,0,0-7.07,3c-2.35,1.13-4.7,2.44-6.94,3.8s-4.57,2.85-6.8,4.36l-6.53,4.4c-4.25,2.88-8.41,5.38-12,7.41-.92.49-1.78,1-2.64,1.39l-2.45,1.12c-1.56.66-2.91,1.22-4.05,1.63s-2.06.66-2.67.86l-.95.28.49-1.38c.32-.87.8-2.06,1.38-3.5s1.26-3.09,2-4.86,1.61-3.69,2.56-5.65,2-4,3.29-6.06a56.6,56.6,0,0,1,4.36-6.16,51.27,51.27,0,0,1,5.77-6,58.38,58.38,0,0,1,7.22-5.39l.32-.2.14-.08.28-.16.56-.31,1.11-.63c.73-.44,1.51-.79,2.28-1.16a47.09,47.09,0,0,1,4.73-2,44.57,44.57,0,0,1,10-2.25,39.75,39.75,0,0,1,10,.17,35,35,0,0,1,8.92,2.52,41.26,41.26,0,0,1,3.71,2c1.13.79,2.16,1.48,3.07,2.25a30.87,30.87,0,0,1,2.38,2.37,20.88,20.88,0,0,1,1.82,2.32,8.12,8.12,0,0,1,1.11,2c.25.59.45,1.12.61,1.56.32.87.47,1.39.47,1.39Z"/><path class="cls-6" d="M661.71,1912c-5.28,45.29,6.31,95.49,44.36,124.69,49.19,37.75,123.83,27.87,182,3,110.47-47.19,195.29-142.32,223.92-251.13,7.29-27.71,10.49-59-6.37-82.9-20.42-29-62.58-36.83-100.14-37.51-79.48-1.46-160.33,18.34-224.62,61.3S670.18,1839.39,661.71,1912Z"/><path class="cls-3" d="M613.05,1451.27l-1.24.19-3.47.49c-3,.43-7.17,1-12,2a95.25,95.25,0,0,0-15.9,4.43c-.66.27-1.43.56-2,.82s-1.56.63-2.15.94-1.28.6-2,1-1.35.68-2,1.06a55.83,55.83,0,0,0-7.59,5,46.46,46.46,0,0,0-6.48,6.19q-.73.83-1.38,1.71c-.47.56-.88,1.15-1.29,1.74s-.78,1.2-1.17,1.79l-.28.45.05-.11,0,0,0,.07-.07.13-.15.26-.58,1a36.3,36.3,0,0,0-3,7.43,37.88,37.88,0,0,0-1.3,7.34,33.39,33.39,0,0,0,.06,6.47,35.85,35.85,0,0,0,.88,5.09c.4,1.39.7,2.55,1,3.28l.42,1.18-.92-.86a23,23,0,0,1-2.39-2.7,26.64,26.64,0,0,1-2.87-4.92,29.31,29.31,0,0,1-2.2-7.19,34.78,34.78,0,0,1-.39-9,35.67,35.67,0,0,1,2.37-10.05l.45-1.11.11-.28.06-.14,0-.07v0l.08-.17.3-.61c.41-.81.8-1.64,1.28-2.42a34.92,34.92,0,0,1,3.07-4.64,45.65,45.65,0,0,1,7.88-8,51.4,51.4,0,0,1,9.43-5.85,45.27,45.27,0,0,1,5-2.11c.91-.35,1.61-.54,2.4-.8s1.7-.47,2.55-.7a60.26,60.26,0,0,1,18.25-1.64,66.48,66.48,0,0,1,12.54,1.95C611.43,1450.66,613.05,1451.27,613.05,1451.27Z"/><path class="cls-11" d="M849.75,2005.13c4.81,1.88,14.77.68,25.42-3.47s18.81-10,21.07-14.64c-4.81-1.88-14.77-.68-25.42,3.47S852,2000.49,849.75,2005.13Z"/><path class="cls-3" d="M736,983.79c-4.64,10.7-10.93,20.86-17.13,30.78a149.22,149.22,0,0,1,37.06-27.1c6.08-3.1,12.74-5.8,19.7-3.84a11.83,11.83,0,0,1,7.74,6.44c3.41,7.79-3.41,15.07-9.8,19.92a213.69,213.69,0,0,1-114.17,42.68,216.65,216.65,0,0,1,11.35-73.31l.1-.28c3.38-9.82,18.07-6.44,16.9,3.88l-3,26.93C691,998.05,697.5,986,706.91,976.5a59.21,59.21,0,0,1,10.62-8.58A12.73,12.73,0,0,1,736,983.79Z"/><path class="cls-4" d="M506.73,1422.27l-14.48,12.64v0L267.85,1718.72a23,23,0,0,1-38.52-4C200.21,1656.58,138,1527.46,91.06,1397c35.44,144.66,93.15,296.56,119.21,362.1a23,23,0,0,0,38,7.24l247.82-263.57C527.43,1463,531.15,1407.89,506.73,1422.27Z"/><path class="cls-4" d="M1001.59,1408.62a32.34,32.34,0,0,0-1.3-5.35,37.9,37.9,0,0,0-3.8-7.83,47.52,47.52,0,0,0-3.16-4.42,56.56,56.56,0,0,0-4.13-4.4,58.91,58.91,0,0,0-10.91-8.1,68,68,0,0,0-14-6.1l-1.77-.54-.44-.14-.22-.07-.11,0-.25-.06-1-.23c-1.29-.3-2.58-.64-3.89-.89-2.61-.56-5.27-1-7.94-1.34-5.34-.73-10.74-1-16.06-1.23s-10.56-.16-15.66-.15l-7.49,0c-1.19,0-2.49,0-3.72-.07l-3.55-.09a122.18,122.18,0,0,1-25.36-3.33,68.61,68.61,0,0,1-9.76-3.17,64.53,64.53,0,0,1-7.26-3.48c-1.9-1.14-3.49-2.05-4.48-2.82l-1.59-1.08,1.06,1.6a38.51,38.51,0,0,0,3.39,4.31,47.35,47.35,0,0,0,6.4,5.78c1.32,1.06,2.83,2,4.41,3s3.35,1.94,5.22,2.84a77.69,77.69,0,0,0,12.47,4.74,102.2,102.2,0,0,0,14.48,3c1.27.15,2.52.36,3.85.47s2.46.25,3.79.35c2.63.23,5.21.4,7.82.51,5.21.28,10.43.36,15.57.55s10.2.39,15.1.78q1.84.14,3.64.37c1.21.1,2.4.26,3.58.42s2.34.35,3.5.54l.87.14.78.15,1.82.35a76.72,76.72,0,0,1,12.49,3.71,65.9,65.9,0,0,1,10.57,5.25c1.6.93,3,2,4.38,3s2.58,2,3.66,3.1a46.05,46.05,0,0,1,5.37,5.87,42.85,42.85,0,0,1,2.91,4.39l1,1.65Z"/><path class="cls-3" d="M732.56,1755c2.45.44,5.13,1,8.08,1.54s6.12,1.07,9.51,1.66l10.8,1.67,12,1.58c4.17.41,8.5.94,13,1.31s9.09.81,13.85.9l7.2.32,7.37.05,3.74,0,3.77-.1c2.52-.08,5.07-.1,7.63-.23,5.11-.42,10.3-.59,15.5-1.29,5.23-.47,10.43-1.45,15.7-2.2,5.18-1.09,10.55-2.07,15.5-3.44l3.79-1c.64-.17,1.24-.28,1.92-.51l2-.65,8.11-2.58,3.47-1.24c1.25-.43,2.48-.93,3.71-1.43,2.48-.95,4.89-2.05,7.31-3.12,4.78-2.28,9.54-4.59,14.09-7.23,2.26-1.34,4.52-2.66,6.71-4.08l3.29-2.1,3.2-2.19c4.22-3,8.29-6.07,12.15-9.3A170.85,170.85,0,0,0,966.53,1701a158,158,0,0,0,15.18-21.36,134.73,134.73,0,0,0,15.07-36.88c.55-2.39,1.08-4.54,1.41-6.42s.7-3.5.86-4.83l.63-4.07L717.14,1752l4.05.78C723.83,1753.32,727.66,1754.14,732.56,1755Z"/><path class="cls-4" d="M1000.86,1639.64c0-1.12-.13-2.2-.18-3.18-.14-2-.24-3.63-.44-5l-.56-4.08-.63,4.07c-.16,1.34-.49,3-.86,4.83s-.86,4-1.41,6.42a134.73,134.73,0,0,1-15.07,36.88A158,158,0,0,1,966.53,1701a170.85,170.85,0,0,1-20.63,20.45c-3.85,3.23-7.93,6.32-12.15,9.3l-3.2,2.19-3.29,2.1c-2.18,1.43-4.45,2.74-6.71,4.08-4.55,2.64-9.3,5-14.09,7.23-2.42,1.07-4.84,2.17-7.31,3.12-1.23.5-2.46,1-3.71,1.43l-3.47,1.24-8.11,2.58-2,.65c-.68.23-1.28.34-1.92.51l-3.79,1c-4.95,1.38-10.32,2.35-15.5,3.44-5.27.75-10.47,1.72-15.7,2.2-5.2.7-10.4.87-15.5,1.29-2.56.14-5.1.15-7.63.23l-3.77.1-3.74,0-7.37-.05-7.2-.32c-4.76-.08-9.36-.64-13.85-.9s-8.8-.9-13-1.31l-12-1.58-10.8-1.67c-3.38-.59-6.55-1.18-9.51-1.66s-5.62-1.1-8.08-1.54c-4.9-.89-8.74-1.72-11.37-2.24l-4.05-.78,3.66,1.9c2.41,1.17,5.89,3.1,10.49,5.09,2.29,1,4.83,2.18,7.63,3.35s5.87,2.32,9.14,3.62,6.84,2.39,10.58,3.7,7.76,2.34,11.93,3.6c2.09.59,4.26,1.08,6.45,1.64s4.43,1.15,6.74,1.62,4.65.94,7,1.42c1.2.23,2.39.49,3.61.69l3.69.58c2.48.4,5,.77,7.55,1.13l7.8.82,4,.4,4,.2c2.71.12,5.44.31,8.2.37,5.53,0,11.16.09,16.87-.35,2.85-.18,5.73-.26,8.61-.63l8.68-1,8.7-1.5c2.89-.42,5.87-1.2,8.83-1.93,6.16-1.38,11.35-3.13,16.81-4.79l.25-.08.56-.2.53-.2,1.06-.39,2.13-.79c1.42-.51,2.82-1.09,4.21-1.67,2.81-1.11,5.54-2.39,8.27-3.64a167.7,167.7,0,0,0,15.7-8.61,156.23,156.23,0,0,0,14.41-10.07A150.06,150.06,0,0,0,958.2,1735,154.16,154.16,0,0,0,979,1710.32a140.79,140.79,0,0,0,13.5-25.47,119.76,119.76,0,0,0,6.72-23.23,109,109,0,0,0,1.69-18.38Q1000.88,1641.33,1000.86,1639.64Z"/><path class="cls-5" d="M862.14,1477.17c-62.39,41.83-155.08-12.4-195.68-21.77s-82.34,22.77-61.3,81,153.61,238.74,284.09,185.27,115.83-265.57,95.29-303C951.85,1359.25,883.24,1463,862.14,1477.17Z"/><path class="cls-5" d="M317.29,1148.49a71.09,71.09,0,0,0,33.32-45.17c2.43-10.67,2.35-21.83,5.21-32.4s9.73-21.11,20.35-23.8c12.17-3.08,24.61,5.38,31.51,15.87,14.68,22.33,11.08,53.38-3.9,75.52s-39.39,36.34-64.72,44.88c-8.76,3-18.27,5.32-27.14,2.75s-16.41-11.82-14-20.73C300.28,1156.91,309.65,1152.9,317.29,1148.49Z"/><path class="cls-5" d="M247.78,966.83a123.1,123.1,0,0,0-5.34,70.19c1.81,8.25,4.68,16.64,10.69,22.57s15.87,8.64,23.14,4.33a109.44,109.44,0,0,1,11.59-76c3.78-6.7,8.31-13.06,10.92-20.29s3-15.81-1.26-22.21c-6.2-9.3-20.36-10.42-30.06-4.88S251.8,956.4,247.78,966.83Z"/><path class="cls-5" d="M203.67,987c1-10.26,3.17-20.5,2.56-30.8s-4.48-21.05-13-26.94c-14.48-10.05-36-.68-44.43,14.81s-7,34.35-3.93,51.7c3.55,19.94,9.37,40.18,22.29,55.77a62.26,62.26,0,0,0,21,16.37c12.94,6.14,27.08-6.41,22.48-20A145.25,145.25,0,0,1,203.67,987Z"/><path class="cls-5" d="M53.08,997.26c-12.57,24.4-8.12,55.55,7.85,77.87s42,36.21,69,41.16c8.2,1.5,17.3,2.09,24.28-2.48s9.57-16.12,2.92-21.16a141.17,141.17,0,0,1-61.16-79.31c-2.06-6.89-3.63-14.06-7.39-20.2S78.24,982,71.06,982.41C62.93,982.91,56.81,990,53.08,997.26Z"/><path class="cls-6" d="M189.94,1228.35c27.09,3.49,55.37-7.62,73.75-27.83s26.75-48.8,23.41-75.91c-1.26-10.24-4.32-20.69-11.32-28.26-14.12-15.29-39.13-13.8-58.21-5.5-34.44,15-59.85,49-64.48,86.26-1.65,13.3-.39,28,8.45,38.07C168.57,1223.19,179.35,1227,189.94,1228.35Z"/><path class="cls-12" d="M881.39,1524.77c-10-3-23,2.07-25,12.33-1.81,9.28,5.41,17.69,7.84,26.83,3.34,12.59-3.9,27.09-16,32s-27.37-.44-33.76-11.79c-4.38-7.78-4.82-17.53-10.28-24.6-6.26-8.12-18-10.56-27.92-7.83s-18.06,9.79-24.56,17.72c-27.51,33.56-27.88,84.59-6.34,122.27a127.72,127.72,0,0,0,10.08,15c41.52,23.66,87.75,33.87,133.72,15a142.66,142.66,0,0,0,34-19.76c18.9-51.3,12.68-112-18.54-157.16C898.77,1536.2,891.41,1527.73,881.39,1524.77Z"/><path class="cls-13" d="M864,1475.81l-.42.33-.49.38c-.31.23-.62.45-.92.65h0l0,0q-1.41.94-2.83,1.82l-1,.57c-.64.38-1.29.77-1.94,1.14l-1.17.63c-.59.32-1.19.65-1.78,1l-1.25.62c-.58.28-1.15.57-1.73.84l-1.31.59-1.71.75-1.35.55-1.71.67-1.37.5-1.72.6-1.39.45-1.74.54-1.39.4-1.77.48-1.38.35-1.81.43-1.37.3-1.85.37-1.35.26-1.91.32-1.32.21-2,.27-1.25.16-2.11.22-1.15.12-2.34.18-.94.07c-1,.06-1.93.11-2.89.14l-.4,0q-3.36.12-6.75.07h-.4q-1.47,0-2.95-.08l-.81,0-2.55-.13-1-.06-2.4-.17-1.05-.09-2.31-.21-1.11-.12-2.27-.26-1.12-.14-2.27-.3-1.11-.16-2.29-.34-1.08-.17-2.32-.39-1-.18-2.37-.44-1-.19-2.46-.49-.88-.18-2.58-.56-.75-.17-2.78-.64-.53-.12-3.11-.76-.2,0c-33.27-8.35-64.52-22.57-85.74-29l-9,66.72,39.65-35.49,8.36,51.83,37.67-46.5,14.54,51,24.14-39.56,22.21,43.44,20.76-46,30.46,37,11.12-49.93L910,1530v-64.84l24.55,29.18-5.4-81.91C903,1431,876.81,1465.58,864,1475.81Z"/><path class="cls-14" d="M1828.34,1609.84c24.56-31.66,33.34-75,23-113.71s-39.46-72-76.51-87.21c-20.94,61.29-102.5,87.95-161.29,60.77s-91.55-95.38-89.32-160.11c-12-6.4-27.64,1.85-33.94,13.91s-5.72,26.42-4.69,40c4.64,60.7,15.91,122,44.07,175.93s75,100.24,133.36,117.53S1791,1657.94,1828.34,1609.84Z"/><path class="cls-15" d="M1828.34,1609.84c24.56-31.66,33.34-75,23-113.71s-39.46-72-76.51-87.21a96.65,96.65,0,0,1-30.14,43A1389.85,1389.85,0,0,0,1724.8,1663C1765,1659.46,1803.72,1641.58,1828.34,1609.84Z"/><path class="cls-14" d="M2120.39,2043c-7.93-11.06-20.87-17.5-33.94-21.3-12-3.49-25.2-5-36.71-.2-20.16,8.46-28.06,33-29,54.88-1.91,45.09,15.49,88.86,17.82,133.93a202.84,202.84,0,0,1-21.88,102.33c-2.33,4.56-4.88,9.15-5.6,14.23s.84,10.84,5.17,13.58c2.6,1.64,5.78,2,8.84,2.24a626.57,626.57,0,0,0,88.81,1.53c16.15-.87,34.33-3.47,43.82-16.57,6.1-8.42,7.15-19.64,5.3-29.87s-6.3-19.76-10.43-29.3c-20.53-47.38-34.26-99.27-27.85-150.51,1.6-12.76,4.43-25.39,4.87-38.24S2127.88,2053.5,2120.39,2043Z"/><path class="cls-16" d="M2129.62,2079.77c.44-12.85-1.74-26.28-9.23-36.73-7.93-11.06-20.87-17.5-33.94-21.3-12-3.49-25.2-5-36.71-.2-20.16,8.46-28.06,33-29,54.88a206.75,206.75,0,0,0,2.07,36.73,86.46,86.46,0,0,0,10.61,3.86c22.83,6.58,54,13.39,89.88,19.33.21-6.11.68-12.22,1.45-18.32C2126.35,2105.25,2129.18,2092.62,2129.62,2079.77Z"/><path class="cls-14" d="M2247.6,2067.61c-1.08,34.67,13.19,67.83,28.35,99s31.76,62.67,35.89,97.11c1.85,15.45,1.13,31.16,3.44,46.55s8.21,31.1,20.43,40.75c14.56,11.5,34.65,12.08,53.2,12.15l48.59.19c9.41,0,19,.05,28-2.53s17.68-8.15,21.76-16.63c4.38-9.1,2.84-20.16-1.65-29.2s-11.59-16.48-18.63-23.71c-18.41-18.92-37.3-37.77-51-60.31-19.27-31.6-27.31-68.54-39-103.65s-28.9-70.75-59.9-91c-8.95-5.84-19.08-10.28-29.74-11s-21.9,2.67-29.19,10.48C2250.32,2044.21,2248,2056.23,2247.6,2067.61Z"/><path class="cls-16" d="M2385.14,2153.57c-2.67-8.77-5.33-17.54-8.22-26.2-11.72-35.11-28.9-70.75-59.9-91-8.95-5.84-19.08-10.28-29.74-11s-21.9,2.67-29.19,10.48c-7.77,8.33-10.13,20.35-10.49,31.73-.93,29.79,9.48,58.46,22,85.74C2310.49,2156.67,2350.1,2157.19,2385.14,2153.57Z"/><path class="cls-14" d="M2191.64,1002.83c-212.68-45.22-394.24,154.51-415,386.64s72.62,636.78,207.49,675.66,560.23,85.57,534.29-84.13c-49.4-323.23-12.68-750.07-51.87-828.33C2399.13,1018,2191.64,1002.83,2191.64,1002.83Z"/><path class="cls-15" d="M2518.44,1981c-49.4-323.23-12.68-750.07-51.87-828.33-39.74-79.34-128.11-117.2-194-134.93,44.34,22.38,86.74,55.36,111,103.8,39.2,78.26,2.47,505.1,51.87,828.33,23.43,153.29-321.38,130-487.69,95.42,11.74,9.47,23.88,16.23,36.39,19.83C2119,2104,2544.38,2150.7,2518.44,1981Z"/><path class="cls-17" d="M1963.41,1064.63a944,944,0,0,1,57.39-352.87,1723,1723,0,0,1,152.07,240.9c12.72,24.41,25.19,50.95,21.83,78.26-5.44,44.29-50.63,73.39-94.34,82.42-24.89,5.14-50.44,5.89-75.86,7.4A57.78,57.78,0,0,1,1963.41,1064.63Z"/><path class="cls-18" d="M2029.72,723.73q-4.44-6-8.92-12c-.49,1.32-1,2.64-1.43,4Q2024.56,719.71,2029.72,723.73Z"/><path class="cls-18" d="M2128.37,1104.76a57.78,57.78,0,0,1-74-37.55A944.69,944.69,0,0,1,2013,733.87a944.72,944.72,0,0,0-49.58,330.76,57.78,57.78,0,0,0,61.1,56.11c25.42-1.51,51-2.26,75.86-7.4a158.23,158.23,0,0,0,28.2-8.65Z"/><path class="cls-7" d="M1950.5,1257.31c-4.68-13.77-5.48-29.48,1-42.49,5.65-11.28,16.46-19.57,28.5-23.32s25.19-3.17,37.29.39a78.94,78.94,0,0,1,56.41,81.77c-.86,11.19-4.54,22.81-13.11,30.06-6.49,5.49-15.09,7.87-23.54,8.79a82.13,82.13,0,0,1-86.59-55.2Z"/><path class="cls-8" d="M1962.06,1278.07a82.87,82.87,0,0,0,53,12.4c8.45-.91,17-3.3,23.54-8.79,8.57-7.25,12.25-18.86,13.11-30.06a79.68,79.68,0,0,0-12.94-49.66,78.7,78.7,0,0,1,35,71.71c-.86,11.19-4.54,22.81-13.11,30.06-6.49,5.49-15.09,7.87-23.54,8.79a81.87,81.87,0,0,1-76.78-35.61C1960.89,1277.29,1961.47,1277.69,1962.06,1278.07Z"/><circle class="cls-9" cx="1993.8" cy="1257.56" r="23.08" transform="translate(-4.82 2507.45) rotate(-64.26)"/><circle class="cls-10" cx="1993.8" cy="1257.56" r="13.58" transform="translate(-4.82 2507.45) rotate(-64.26)"/><circle class="cls-7" cx="1978.17" cy="1260.11" r="9.68" transform="translate(-15.96 2494.81) rotate(-64.26)"/><path class="cls-7" d="M2127.85,1182.52c13.17-16.08,31.62-28.92,52.31-30.84,17.95-1.66,36.17,5.18,49.81,17s22.87,28.17,27.69,45.53a112.79,112.79,0,0,1-56.57,130.18c-14.22,7.41-31.09,11.73-46.36,6.8-11.56-3.73-20.95-12.36-28.44-21.92a117.35,117.35,0,0,1,1.56-146.72Z"/><path class="cls-8" d="M2257.67,1214.18c-4.82-17.37-14-33.75-27.69-45.53-.68-.59-1.38-1.15-2.08-1.72a98.17,98.17,0,0,1,12.69,35.64,112.79,112.79,0,0,1-71.25,122.76c-14.05,5.36-30.1,7.75-44.07,2.53.35.46.68.93,1,1.38,7.49,9.56,16.88,18.19,28.44,21.92,15.26,4.93,32.13.61,46.36-6.8a112.79,112.79,0,0,0,56.57-130.18Z"/><circle class="cls-9" cx="2160.25" cy="1235.23" r="32.97" transform="translate(-120.29 239.43) rotate(-6.17)"/><circle class="cls-10" cx="2160.25" cy="1235.23" r="19.4" transform="translate(-120.29 239.42) rotate(-6.17)"/><circle class="cls-7" cx="2145.36" cy="1218.2" r="13.84" transform="translate(-118.54 237.73) rotate(-6.17)"/><path class="cls-14" d="M2107.16,1326l-2.4-1.15c-1.72-.83-3.68-1.77-5.93-2.75-4.45-2-9.93-4.25-16.28-6.42a179.66,179.66,0,0,0-21.53-5.95,173.85,173.85,0,0,0-25.79-3.45c-2.29-.17-4.61-.16-7-.27s-4.77,0-7,0l-1.91.07c-.65,0-1.16.07-1.75.1l-3.51.24c-2.36.21-4.73.46-7,.86s-4.62.87-6.85,1.44a54.22,54.22,0,0,0-6.53,2.07,46,46,0,0,0-6,2.85c-.93.57-1.89,1.09-2.78,1.71l-.6.39-.16.12-.42.31-1.62,1.22a40.18,40.18,0,0,0-4.1,4.17,38.52,38.52,0,0,0-3.48,5.13,24.4,24.4,0,0,0-3.18,11c-.37,7,3.71,13.51,11,18.89a72.94,72.94,0,0,0,12.29,7c1.1.52,2.24,1,3.38,1.49.56.25,1.15.47,1.72.7l1.6.64,7.45,2.77c2.36.8,4.66,1.63,7,2.4l7.08,2.23c2.35.68,4.68,1.38,7,2l6.88,1.8c9.09,2.29,17.83,4,26,5.31s15.71,2.28,22.45,2.85c3.38.4,6.54.49,9.49.77l8.11.46c2.45.08,4.65.14,6.58.24s3.55.07,4.88.11l4.09.11-5.46-58.65-3.64-1.87Z"/><path class="cls-19" d="M2114.14,1387.47c-1.33,0-3,0-4.88-.11s-4.12-.16-6.58-.24l-8.11-.46c-2.95-.28-6.11-.37-9.49-.77-6.75-.58-14.31-1.55-22.45-2.85s-16.89-3-26-5.31l-6.88-1.8c-2.31-.63-4.64-1.34-7-2l-7.08-2.23c-2.35-.77-4.65-1.6-7-2.4l-7.45-2.77-1.6-.64c-.58-.23-1.16-.46-1.72-.7-1.14-.48-2.28-1-3.38-1.49a72.94,72.94,0,0,1-12.29-7c-7.27-5.38-11.35-11.92-11-18.89a24.4,24.4,0,0,1,3.18-11,38.52,38.52,0,0,1,3.48-5.13,40.18,40.18,0,0,1,4.1-4.17l1.62-1.22.42-.31.16-.12.6-.39c.88-.62,1.84-1.14,2.78-1.71a46,46,0,0,1,6-2.85,54.22,54.22,0,0,1,6.53-2.07c2.24-.57,4.53-1.08,6.85-1.44s4.68-.64,7-.86l3.51-.24c.59,0,1.1-.08,1.75-.1l1.91-.07c2.27,0,4.72-.07,7,0s4.67.1,7,.27a173.85,173.85,0,0,1,25.79,3.45,179.66,179.66,0,0,1,21.53,5.95c6.35,2.17,11.83,4.4,16.28,6.42,2.25,1,4.21,1.92,5.93,2.75l2.4,1.15,2,1,3.64,1.87-2.9-2.89-1.6-1.55-2-1.8-2.36-2.1-2.77-2.23a128.38,128.38,0,0,0-15-10.34,143,143,0,0,0-21.45-10.45,149.47,149.47,0,0,0-27.47-7.69c-2.5-.53-5.07-.8-7.67-1.17-1.3-.19-2.62-.27-3.94-.42s-2.59-.27-4.06-.37c-2.4-.2-5.49-.32-8.21-.31s-5.67.09-8.59.35a77.13,77.13,0,0,0-17.9,3.45,66.9,66.9,0,0,0-9,3.62c-1.48.74-2.93,1.53-4.36,2.43l-1.07.65-1.19.81-1.73,1.21a56.25,56.25,0,0,0-8,7.31,51,51,0,0,0-6.14,8.57,46.27,46.27,0,0,0-6.16,21,39.55,39.55,0,0,0,1.38,11.56l.09.36,0,.18c.09.3-.14-.41.22.71l.18.5.35,1a23.76,23.76,0,0,0,.89,2.3q.66,1.49,1.37,3c.47.92.95,1.66,1.43,2.49l.73,1.21.8,1.13c.54.75,1.08,1.51,1.64,2.23a48,48,0,0,0,3.63,4,56.58,56.58,0,0,0,7.9,6.47,77.68,77.68,0,0,0,8.26,4.89c2.79,1.38,5.57,2.62,8.35,3.69,1.39.56,2.77,1.05,4.14,1.54.69.25,1.37.48,2.06.7l2.19.72c2.58.78,5.09,1.5,7.69,2.22s5.39,1.42,8,2,5.22,1.19,7.8,1.68,5.14,1,7.68,1.37,5,.78,7.52,1.09a218.22,218.22,0,0,0,28,1.72,205.45,205.45,0,0,0,23.55-1.37c1.74-.19,3.42-.39,5-.65l4.66-.7c3-.51,5.7-1,8.15-1.53,4.89-1.07,8.68-2.07,11.25-2.81s3.93-1.15,3.93-1.15Z"/><ellipse class="cls-19" cx="2093.86" cy="1369.85" rx="26.67" ry="9.24"/><path class="cls-20" d="M2068.91,1373.09c3.79,3.5,13.52,6,25,6s21.16-2.5,25-6c-3.79-3.5-13.52-6-25-6S2072.7,1369.59,2068.91,1373.09Z"/><path class="cls-19" d="M2324.65,1336.4c-1.49.06-3,.18-4.45.28l-4.43.47-4.4.65-4.37.81c-1.46.29-2.89.64-4.34,1s-2.89.7-4.32,1.1l-4.28,1.24-4.24,1.38-4.2,1.52c-.77.3-1.54.61-2.31.92.49-1.74,1-3.47,1.46-5.21l5.1-18.71-17.87,6-5,1.66-4.91,1.84-4.84,2-4.76,2.18-4.67,2.36-4.57,2.53-4.47,2.7c-1.46.94-2.91,1.9-4.35,2.88l-4.24,3-4.1,3.2c-1.35,1.09-2.64,2.24-4,3.36s-2.56,2.33-3.81,3.52-2.45,2.43-3.64,3.68-2.33,2.55-3.46,3.85-2.21,2.68-3.27,4-2,2.78-3,4.23c1.62-.63,3.2-1.32,4.77-2s3.12-1.33,4.64-2,3.09-1.32,4.6-2,3.07-1.29,4.56-2,3.05-1.26,4.54-1.92,3-1.21,4.53-1.86l9-3.58c1.52-.55,3-1.11,4.51-1.69l4.5-1.64,4.51-1.58,4.51-1.53,0,0c-.81,3-1.61,6-2.36,9.07l-6.56,26.51,21.56-15.37,3.35-2.39,3.37-2.36,6.83-4.66,6.93-4.59,7-4.54,7.14-4.51,7.27-4.48,7.38-4.54c1.24-.77,2.49-1.52,3.73-2.33s2.5-1.57,3.75-2.41C2327.63,1336.33,2326.13,1336.34,2324.65,1336.4Z"/><path class="cls-19" d="M1920.79,1346c-.67-.82-1.33-1.68-2-2.49s-1.41-1.6-2.14-2.38l-2.26-2.28-2.37-2.18c-.8-.71-1.64-1.38-2.47-2.07s-1.69-1.34-2.56-2l-2.65-1.86c-.9-.6-1.8-1.2-2.73-1.77l-2.81-1.66c-1-.53-1.9-1.06-2.88-1.56l-2.94-1.44-3-1.35-3.06-1.22-3.11-1.1-3.16-1-15.85-4.95,5.83,17.36c1,2.92,2,5.82,3.07,8.7.3.8.61,1.59.91,2.39-1.18-.39-2.36-.78-3.55-1.15-3.13-1-6.28-1.82-9.46-2.61l-4.78-1.09c-1.6-.34-3.22-.62-4.82-.93-3.22-.6-6.47-1-9.72-1.42s-6.54-.61-9.83-.72a88.25,88.25,0,0,0-9.95.19c1.4.94,2.81,1.79,4.23,2.63s2.81,1.69,4.23,2.47,2.81,1.62,4.22,2.39,2.8,1.56,4.2,2.33,2.8,1.53,4.19,2.28,2.78,1.52,4.18,2.24,2.77,1.52,4.16,2.23l4.15,2.19,32.91,17.18,25.61,13.37-11.44-26.76q-1.81-4.23-3.71-8.42t-3.91-8.33l-.49-1,1.6.37c.93.25,1.88.47,2.83.69,1.89.49,3.77,1,5.69,1.54.95.28,1.89.59,2.86.85l2.87.9,2.9.94c1,.35,1.94.66,2.92,1s1.95.67,2.93,1,2,.72,3,1C1922,1347.67,1921.42,1346.81,1920.79,1346Z"/><path class="cls-19" d="M2263.18,1078.24a66.65,66.65,0,0,0-7.14-.52c-1.38-.06-2.84-.05-4.39-.08s-3.15.13-4.84.2-3.45.22-5.26.4-3.67.46-5.58.74-3.87.62-5.85,1.05-4,.84-6.06,1.36c-4.06,1.12-8.27,2.28-12.41,3.86s-8.29,3.31-12.39,5.15c-4,2-8,4-11.8,6.39s-7.39,4.75-10.81,7.21c-1.69,1.26-3.3,2.57-4.88,3.85s-3.1,2.54-4.5,3.89-2.8,2.58-4.1,3.86-2.49,2.58-3.63,3.83-2.23,2.43-3.21,3.63-1.91,2.36-2.74,3.48a62.23,62.23,0,0,0-4.08,5.85c-2.1,3.35-3.14,5.44-3.14,5.44s2.23-.72,5.85-2.3l3-1.32c1.09-.44,2.22-1,3.45-1.49l8-3.68,9.32-4.42,2.47-1.2q1.27-.58,2.55-1.19c1.72-.8,3.43-1.68,5.19-2.53,3.56-1.63,7.13-3.47,10.84-5.19s7.43-3.51,11.12-5.36c3.77-1.7,7.46-3.57,11.18-5.24s7.35-3.4,10.87-5.13c1.77-.83,3.53-1.6,5.24-2.43l2.53-1.23,2.5-1.15,9.3-4.45,8-3.93,6.21-3.22c3.47-1.81,5.46-3.1,5.46-3.1S2267.15,1078.72,2263.18,1078.24Z"/><path class="cls-19" d="M2030.62,1168.87a19.05,19.05,0,0,0-1.56-2.88c-.38-.6-.85-1.27-1.38-2s-1.13-1.37-1.78-2.13-1.44-1.44-2.25-2.23-1.76-1.45-2.72-2.24a41.46,41.46,0,0,0-6.85-4,44,44,0,0,0-8.43-2.94,49.08,49.08,0,0,0-9.48-1.28,50.28,50.28,0,0,0-19.4,3.18,49.18,49.18,0,0,0-8.57,4.24,43.88,43.88,0,0,0-7,5.48,41.42,41.42,0,0,0-5.19,6c-.66,1.06-1.32,2-1.86,3s-1,1.92-1.41,2.84a30,30,0,0,0-1.65,4.87,20.76,20.76,0,0,0-.57,3.26c-.08.76-.09,1.18-.09,1.18l1.08-.49c.7-.31,1.63-.82,2.86-1.37l1.95-.92c.73-.3,1.46-.66,2.24-1,1.59-.69,3.34-1.41,5.19-2.14s3.84-1.42,5.91-2.09,4.21-1.31,6.39-1.94,4.46-1.13,6.74-1.67,4.61-.94,6.95-1.35,4.68-.7,7-1,4.64-.45,6.92-.58,4.52-.23,6.67-.22,4.27,0,6.27.09l2.9.16,2.7.21c.86.08,1.66.19,2.45.24l2.11.23c1.31.11,2.43.35,3.18.41s1.18.12,1.18.12S2030.94,1169.56,2030.62,1168.87Z"/><path class="cls-21" d="M1942.15,1778.9c8.33,51.34,18.33,104.85,50.25,145.93,32.43,41.74,84,65.15,136.1,74.06,26.84,4.59,54,5.74,81.27,5.22a75.54,75.54,0,0,0,74-78.54L2273,1654.1a1561.38,1561.38,0,0,0-354.15-32.86Q1929.39,1700.23,1942.15,1778.9Z"/><path class="cls-14" d="M1971.88,1565.52l1,1.95,1.12,2.23,1.38,2.48c.93,1.76,2.13,3.62,3.37,5.64s2.7,4.13,4.4,6.27a112.37,112.37,0,0,0,12,13.54,123,123,0,0,0,16.36,13.25c1.53,1.05,3.15,2,4.73,3.07l2.47,1.45,1.24.73.31.18c-.26-.16,0,0-.06,0l.09,0,.17.09.69.37,2.77,1.49c.95.53,1.73.87,2.61,1.32,1.67.87,3.52,1.69,5.36,2.53,3.72,1.6,7.51,3.18,11.46,4.55s8,2.6,12.1,3.77a205.4,205.4,0,0,0,25.53,5.17c4.34.64,8.72,1.17,13.1,1.53l1.72.15,1.6.11c1.06.06,2.09.18,3.18.23,2.16.13,4.3.23,6.43.28s4.25.06,6.34,0,4.17-.09,6.23-.19c4.11-.25,8.11-.73,12-1.31a109.54,109.54,0,0,0,11.25-2.56,85.54,85.54,0,0,0,10.27-3.85l.31-.13.08,0c.08,0-.38.23-.15.1l.17-.08.66-.34,1.31-.67c.87-.45,1.79-.9,2.4-1.29l2.06-1.2c.69-.42,1.39-.93,2.09-1.38,1.43-.88,2.7-1.94,4-2.92s2.45-2.11,3.65-3.14a61.74,61.74,0,0,0,11-13.5,48.51,48.51,0,0,0,7.07-21.72l.2-3.35-218.16-19.58,1.39,3.08C1971.36,1564.34,1971.59,1564.91,1971.88,1565.52Z"/><path class="cls-19" d="M2188.9,1583.58l-1-3.24-.2,3.35a48.51,48.51,0,0,1-7.07,21.72,61.74,61.74,0,0,1-11,13.5c-1.2,1-2.38,2.12-3.65,3.14s-2.58,2-4,2.92c-.7.45-1.4,1-2.09,1.38l-2.06,1.2c-.61.39-1.53.85-2.4,1.29l-1.31.67-.66.34-.17.08c-.23.13.22-.14.15-.1l-.08,0-.31.13a85.54,85.54,0,0,1-10.27,3.85,109.54,109.54,0,0,1-11.25,2.56c-3.9.58-7.91,1.06-12,1.31-2.06.1-4.13.19-6.23.19s-4.21,0-6.34,0-4.28-.15-6.43-.28c-1.08-.05-2.11-.17-3.18-.23l-1.6-.11-1.72-.15c-4.38-.36-8.76-.89-13.1-1.53a205.4,205.4,0,0,1-25.53-5.17c-4.11-1.18-8.18-2.37-12.1-3.77s-7.74-2.95-11.46-4.55c-1.84-.84-3.69-1.66-5.36-2.53-.88-.45-1.66-.8-2.61-1.32l-2.77-1.49-.69-.37-.17-.09-.09,0s-.2-.12.06,0l-.31-.18-1.24-.73-2.47-1.45c-1.58-1.05-3.2-2-4.73-3.07a123,123,0,0,1-16.36-13.25,112.37,112.37,0,0,1-12-13.54c-1.7-2.14-3-4.31-4.4-6.27s-2.44-3.88-3.37-5.64l-1.38-2.48-1.12-2.23-1-1.95c-.29-.61-.52-1.18-.75-1.68l-1.39-3.08.23,3.37c0,.55.08,1.16.15,1.83l.33,2.21.4,2.6.63,2.89a78.46,78.46,0,0,0,4.72,14.4,95,95,0,0,0,9.78,17.33,108.76,108.76,0,0,0,15.84,17.72c1.55,1.46,3.25,2.78,4.92,4.19l2.62,2,1.33,1,.33.25.46.31.64.45,2.58,1.81c.83.6,1.93,1.23,2.89,1.85,2,1.29,4,2.4,6,3.55s4.08,2.22,6.19,3.26,4.25,2,6.45,2.93a135.73,135.73,0,0,0,13.45,5c4.6,1.45,9.27,2.77,14,3.81s9.52,2,14.32,2.63,9.61,1.16,14.41,1.5c2.2.18,4.86.3,7.25.36s4.84.07,7.26,0a122.85,122.85,0,0,0,28.48-3.63,101,101,0,0,0,13.27-4.46,88.44,88.44,0,0,0,11.95-6.27l.35-.21.09-.05.31-.19.15-.11.61-.43,1.2-.86c.8-.57,1.56-1.09,2.5-1.85l2.63-2.1c.84-.7,1.56-1.43,2.33-2.14a69.65,69.65,0,0,0,7.91-8.89,62,62,0,0,0,9.29-18.26,50.66,50.66,0,0,0,2.28-15.34A42.76,42.76,0,0,0,2188.9,1583.58Z"/><ellipse class="cls-21" cx="2010.08" cy="1325.91" rx="23.34" ry="7.78" transform="translate(-289.3 610.85) rotate(-16.14)"/><path class="cls-14" d="M2496.24,1415.78c-34.28,20.74-58,58-62.29,97.88s11,81.32,40.13,108.86c41.54-49.7,127.23-45.32,172.36,1.14s51.24,121.87,25.94,181.5c8.91,10.28,26.47,8.19,36.67-.81s14.82-22.61,18.72-35.64c17.44-58.32,28.91-119.55,22-180s-34-120.47-82.32-157.55S2548.33,1384.26,2496.24,1415.78Z"/><path class="cls-22" d="M2116.74,1910.67c-1.85,3.64-1.67,11.58.79,20.29s6.44,15.58,9.92,17.72c1.85-3.64,1.67-11.58-.79-20.29S2120.22,1912.81,2116.74,1910.67Z"/><path class="cls-23" d="M2163.77,1534.78q0-2.4-.08-4.8a112.63,112.63,0,0,0-6.2-32.87,113.93,113.93,0,0,0-43.16-56.06q-2-1.35-4-2.61c-15.33-9.47-33.24-15.22-51.25-14.6s-36,8-48.07,21.4c-13.88,15.47-18.7,37.42-17.43,58.17a117.29,117.29,0,0,0,96.85,108.4h0l1.11.2.59.11c2.25.36,4.52.65,6.81.85q1.14.1,2.29.17a61.77,61.77,0,0,0,18.68-1.48,44.39,44.39,0,0,0,8-2.79,42.57,42.57,0,0,0,5.22-2.89c10-6.46,17.13-16.82,22-28q.6-1.39,1.16-2.8t1.06-2.82a110.59,110.59,0,0,0,3.95-13.82c.63-2.92,1.14-5.87,1.54-8.83.24-1.79.45-3.59.61-5.39q.41-4.72.43-9.47S2163.77,1534.82,2163.77,1534.78Z"/><path class="cls-18" d="M2194.84,1029.64a393,393,0,0,1-46.29,30,327.38,327.38,0,0,1-50.36,22.5,276,276,0,0,1-90,15.29,254.61,254.61,0,0,1-35.13-2.43,57.8,57.8,0,0,1-9.65-30.41q-1.14-38.83.93-77.66c1.09.36,2.17.72,3.28,1.06a141.35,141.35,0,0,0,40.57,5.7,172.53,172.53,0,0,0,56-9.56,223.71,223.71,0,0,0,34.4-15.41,288.25,288.25,0,0,0,33.1-21.4c9.06-6.73,18-14.07,26.68-21.88q7.36,13.53,14.5,27.19C2185.39,976.69,2197.65,1002.78,2194.84,1029.64Zm-90.38-130.77c10-5.5,19.64-11.45,29-17.72q-26.14-44.85-55-88.07a277.13,277.13,0,0,1-24,14.86,223.73,223.73,0,0,1-34.4,15.41h0a174.53,174.53,0,0,1-34.46,8.14,946.63,946.63,0,0,0-17.26,105.12,276.32,276.32,0,0,0,85.72-15.24A327.42,327.42,0,0,0,2104.45,898.87Z"/><path class="cls-24" d="M2012.39,825.82a175.34,175.34,0,0,1-26.74,5.67l-.28,1.23q-1.25,5.62-2.43,11.26l-.14.64q-1.3,6.26-2.51,12.53l-.31,1.62q-1,5.4-2,10.82l-.41,2.29q-1,5.59-1.92,11.19l-.18,1.08q-3.19,19.5-5.57,39.12l0,.22q-.79,6.56-1.5,13.13a274.14,274.14,0,0,0,54.27-6.37A946.07,946.07,0,0,1,2012.39,825.82Z"/><path class="cls-24" d="M1963.62,1068.05q.1,1.15.24,2.28c0,.14,0,.28,0,.42.12.86.26,1.72.41,2.57,0,.24.09.47.14.71q.19,1,.43,2c0,.21.09.43.15.64q.3,1.22.64,2.42c.07.23.14.46.21.69q.28.91.58,1.81l.27.78q.4,1.14.85,2.25c.09.22.19.44.28.66q.35.84.73,1.67l.39.85q.43.91.89,1.8l.44.82q.44.83.91,1.64l.51.86q.44.72.89,1.43l.44.68h0a254.61,254.61,0,0,0,35.13,2.43,273.61,273.61,0,0,0,60.26-6.81,57.83,57.83,0,0,1-14.05-23.44q-11.66-37.34-20.17-75.57a166.66,166.66,0,0,1-26,2.08,141.35,141.35,0,0,1-40.57-5.7c-1.1-.33-2.19-.69-3.27-1.05,0,.48-.05,1-.08,1.45q-.16,3.1-.3,6.2-.09,1.93-.17,3.87-.12,3-.23,6.08-.07,2-.13,4.07-.09,2.94-.16,5.88-.05,2.17-.09,4.34c0,1.88-.07,3.75-.1,5.63,0,1.57,0,3.14,0,4.71,0,1.76,0,3.53,0,5.29s0,3.48,0,5.22,0,3.19,0,4.79c0,2.06,0,4.12.08,6.18,0,1.29,0,2.59.05,3.88q.09,5,.24,10.08c0,.91.08,1.81.15,2.7Q1963.58,1067.69,1963.62,1068.05Z"/><path class="cls-25" d="M2162.29,996.71l-1.08-1.94c-.68-1.27-1.73-3.12-3-5.5l-10.45-19.6-7-13.05L2133,942.08l-17-31.56-8.63-16.05L2099,878.89l-7.69-14.64c-2.5-4.63-4.72-9.08-6.83-13.17s-4-7.86-5.67-11.2-3.09-6.29-4.28-8.7-2.07-4.34-2.69-5.65l-.92-2,1.37,1.75c.87,1.15,2.19,2.81,3.78,5s3.55,4.79,5.71,7.85,4.61,6.51,7.18,10.34,5.36,8,8.2,12.41S2103,870,2106,874.92s6,10,9,15.28,6,10.63,8.93,16,5.78,10.85,8.47,16.27,5.29,10.78,7.77,16,4.68,10.33,6.74,15.21c1,2.44,2.05,4.8,3,7.1s1.78,4.56,2.62,6.71l2.37,6.19,2,5.65c1.25,3.54,2.27,6.65,3,9.23s1.37,4.62,1.78,6Z"/><path class="cls-26" d="M2128,1580.64a65.53,65.53,0,0,0-1-58.36c-3.59-6.79-8.69-13.18-16.38-15.35a14.67,14.67,0,0,0-12.83,2.06c-12.82,9.64.48,33.46-11.87,42.72-4.87,5.31-14.47,2.39-18.29-3.72s-3.55-13.82-3.18-21v-.22c.65-12.71-14.45-19.84-23.88-11.3-8.93,8.09-14.86,20.27-16.31,32.43-1.21,10.18,0,20.33,2.35,30.32a118.56,118.56,0,0,0,63.7,33.62h0l1.11.2.59.11,1.49.21A65.65,65.65,0,0,0,2128,1580.64Z"/><path class="cls-13" d="M2102.63,1456.71l14.87,35.22,9.48-40.83a112,112,0,0,0-12.66-10q-2-1.35-4-2.61c-14.1-8.71-30.37-14.25-46.9-14.61l-23,3.12a64.61,64.61,0,0,0-29.46,18.29,62.53,62.53,0,0,0-9.7,14.63,331.93,331.93,0,0,0,19.18,39.8l15.52-48,22,49.27,13-50.39,21.68,41.39Z"/><path class="cls-15" d="M2717.29,1804.44c-22.91-28.53-54-22-54-22s1.73-43.23-33.72-46.25-44.09,51.87-24.64,44.09,37.18-22,40.63-.43-46.25,64-52.74,96.83,24.21,66.57,43.23,63.54,13.4-18.59-7.35-43.23,22.48-44.52,22.48-44.52-12.54,24.64-3.46,44.52,19.45,45.82,21.61,57.93,30.69,2.59,28.1-30.26-25.94-31.12-19.45-46.69,30.26-10.37,30.26-10.37-8.65,17.29,5.62,35.88,25.07,23.34,30.26,24.64,29.83-20.32,7.78-33.29-29-14.7-23.78-37.61S2717.29,1804.44,2717.29,1804.44Z"/><path class="cls-15" d="M1482.57,1326.35c31.62,18.41,58.35,1.19,58.35,1.19s13.89,41,48.07,31.08,22.55-64.24,7.18-50-26.79,33.92-37.77,15,20.22-76.31,14.49-109.3-46.48-53.45-63.15-43.81-5.84,22.16,22.37,37.71-5,49.62-5,49.62,2.86-27.5-12.75-42.8-34.6-35.79-41-46.32-29.58,8.59-15.37,38.33,35.38,19.75,34.91,36.6-24.52,20.54-24.52,20.54,1.87-19.24-18.12-31.47-31.78-12.79-37.08-12.14-20.55,29.67,4.68,33.86,32.31,3.33,35.68,26.58S1482.57,1326.35,1482.57,1326.35Z"/><path class="cls-19" d="M2740.81,1562.59a12,12,0,0,0-4.87-4.78,12.38,12.38,0,0,0-3.1-1.14,12.72,12.72,0,0,0-1.54-.25l-.77-.07-.56,0a71.35,71.35,0,0,0-9.29.28,58.15,58.15,0,0,0-16.5,3.84,28.71,28.71,0,0,0-3.64,1.76,13.78,13.78,0,0,0-1.79,1.23,7.23,7.23,0,0,0-.93.92,4,4,0,0,0-.88,1.8,3,3,0,0,0,0,.76l0,.2a2.15,2.15,0,0,0,.06.34l0,.1.15.44a7.89,7.89,0,0,0,.36.79c.13.22.26.39.4.59a6.15,6.15,0,0,0,1.88,1.56,11,11,0,0,0,3.61,1.1,25.77,25.77,0,0,0,6,.07c1.81-.17,3.44-.44,4.9-.71a60,60,0,0,0,6.65-1.67c1.51-.47,2.29-.77,2.29-.77l-2.39.25c-1.55.16-3.85.31-6.73.38-1.44,0-3,0-4.74-.13a26.79,26.79,0,0,1-5.28-.84,7.3,7.3,0,0,1-2.26-1,2.06,2.06,0,0,1-.39-.4l.1-.07a9.71,9.71,0,0,1,1.22-.63,24.09,24.09,0,0,1,3.12-1.09,48.72,48.72,0,0,1,7.23-1.39,67.7,67.7,0,0,1,7.92-.58,64.25,64.25,0,0,1,8.32.43l.56.07.35.06a7,7,0,0,1,.7.16,4.55,4.55,0,0,1,1.16.51,4.07,4.07,0,0,1,1.55,1.76,6.48,6.48,0,0,1,.59,2.75,6.26,6.26,0,0,1-.15,1.42,4.49,4.49,0,0,1-.18.59l-.1.22,0,.06s0,0,0,0v0h0l-.12.17-.3.35c-.21.23-.38.48-.61.7a14.41,14.41,0,0,1-1.39,1.27,18.23,18.23,0,0,1-3.3,2.13,32.17,32.17,0,0,1-8.2,2.64c-1.48.29-3,.52-4.51.69l-2.41.23-2.4.18a128.92,128.92,0,0,1-19.13-.1,41.38,41.38,0,0,1-4.41-.53,14.63,14.63,0,0,1-3.56-1,5.69,5.69,0,0,1-2.16-1.6,4.57,4.57,0,0,1-1-2.33,8.74,8.74,0,0,1,.26-3.16,14,14,0,0,1,.56-1.68c.21-.56.49-1.13.72-1.58a24.36,24.36,0,0,1,4.78-6.05,37.44,37.44,0,0,1,12.73-7.5,61.36,61.36,0,0,1,12.79-2.87c4-.44,7.48-.64,10.39-.75l9.19-.28-2.37-.44c-1.55-.26-3.81-.7-6.73-1.08a91.4,91.4,0,0,0-10.64-.92,54.45,54.45,0,0,0-14.1,1.34,45.91,45.91,0,0,0-7.89,2.63,36.54,36.54,0,0,0-7.78,4.72,31.56,31.56,0,0,0-6.71,7.22,23,23,0,0,0-1.38,2.44,21.66,21.66,0,0,0-1,2.6,16.7,16.7,0,0,0-.82,6,13.54,13.54,0,0,0,.63,3.33,12.27,12.27,0,0,0,1.56,3.12,13.89,13.89,0,0,0,5.16,4.43,30,30,0,0,0,10.93,2.74,119.53,119.53,0,0,0,20.6.38l2.58-.21,2.57-.27c1.82-.22,3.56-.5,5.34-.86a38.81,38.81,0,0,0,10.5-3.68,25.5,25.5,0,0,0,4.82-3.32,23,23,0,0,0,2.11-2.11c.34-.36.63-.78.94-1.16l.46-.59a9.36,9.36,0,0,0,.52-.82l.3-.56.21-.45c.14-.3.23-.59.35-.89a13.12,13.12,0,0,0,.45-1.73,14.6,14.6,0,0,0,.22-3.33A14.22,14.22,0,0,0,2740.81,1562.59Zm-39.55,4v.1h0l0-.23,0-.1Zm32.57,4.85h0v0h0Z"/><path class="cls-19" d="M2373.33,2186.15h0v0h0Z"/><path class="cls-19" d="M2380.29,2177.28a12,12,0,0,0-4.87-4.78,12.37,12.37,0,0,0-3.1-1.14,12.73,12.73,0,0,0-1.54-.25l-.77-.07-.56,0a71.36,71.36,0,0,0-9.29.28,58.14,58.14,0,0,0-16.5,3.84,28.72,28.72,0,0,0-3.64,1.76,13.79,13.79,0,0,0-1.79,1.23,7.23,7.23,0,0,0-.93.92,4,4,0,0,0-.88,1.8,3,3,0,0,0,0,.76l0,.2a2.15,2.15,0,0,0,.06.34l0,.1.15.44a7.92,7.92,0,0,0,.36.79c.13.22.26.39.4.59a6.15,6.15,0,0,0,1.88,1.56,11,11,0,0,0,3.61,1.1,25.78,25.78,0,0,0,6,.07c1.81-.17,3.44-.44,4.9-.71a60,60,0,0,0,6.65-1.67c1.51-.47,2.29-.77,2.29-.77l-2.39.25c-1.55.16-3.85.31-6.73.38-1.44,0-3,0-4.74-.13a26.79,26.79,0,0,1-5.28-.84,7.29,7.29,0,0,1-2.27-1,2.06,2.06,0,0,1-.39-.4l.1-.07a9.73,9.73,0,0,1,1.22-.63,24.08,24.08,0,0,1,3.12-1.09,48.73,48.73,0,0,1,7.23-1.39,67.72,67.72,0,0,1,7.92-.58,64.23,64.23,0,0,1,8.32.43l.56.07.35.06a7,7,0,0,1,.7.16,4.54,4.54,0,0,1,1.16.51,4.07,4.07,0,0,1,1.55,1.76,6.48,6.48,0,0,1,.59,2.75,6.26,6.26,0,0,1-.15,1.42,4.51,4.51,0,0,1-.18.59l-.1.22,0,.06s0,0,0,0v0h0l-.12.17-.3.35c-.21.23-.38.48-.61.7a14.43,14.43,0,0,1-1.39,1.27,18.24,18.24,0,0,1-3.3,2.13,32.17,32.17,0,0,1-8.2,2.64c-1.48.29-3,.52-4.51.69l-2.41.23-2.4.18a128.92,128.92,0,0,1-19.13-.1,41.35,41.35,0,0,1-4.41-.53,14.63,14.63,0,0,1-3.56-1,5.69,5.69,0,0,1-2.16-1.6,4.57,4.57,0,0,1-1-2.33,8.75,8.75,0,0,1,.26-3.16,14,14,0,0,1,.56-1.68c.21-.56.49-1.13.72-1.58a24.36,24.36,0,0,1,4.78-6.05,37.44,37.44,0,0,1,12.73-7.5,61.35,61.35,0,0,1,12.79-2.87c4-.44,7.48-.64,10.39-.75l9.19-.28-2.37-.44c-1.55-.26-3.81-.7-6.73-1.08a91.45,91.45,0,0,0-10.64-.92,54.45,54.45,0,0,0-14.1,1.34,45.92,45.92,0,0,0-7.89,2.63,36.54,36.54,0,0,0-7.78,4.72,31.56,31.56,0,0,0-6.71,7.22,23,23,0,0,0-1.38,2.44,21.67,21.67,0,0,0-1,2.6,16.7,16.7,0,0,0-.82,6,13.54,13.54,0,0,0,.63,3.33A12.28,12.28,0,0,0,2314,2196a13.89,13.89,0,0,0,5.16,4.43,30,30,0,0,0,10.93,2.74,119.53,119.53,0,0,0,20.6.38l2.58-.21,2.57-.27c1.82-.22,3.56-.5,5.34-.86a38.81,38.81,0,0,0,10.5-3.68,25.51,25.51,0,0,0,4.82-3.32,23.07,23.07,0,0,0,2.11-2.11c.34-.36.63-.78.94-1.16l.46-.59a9.34,9.34,0,0,0,.52-.82l.3-.56.21-.45c.14-.3.23-.59.35-.89a13.12,13.12,0,0,0,.45-1.73,14.6,14.6,0,0,0,.22-3.33A14.22,14.22,0,0,0,2380.29,2177.28Zm-39.55,4v.1h0l0-.23,0-.1Z"/><path class="cls-19" d="M2092.81,2163.45a12,12,0,0,0-2.62-6.3,12.38,12.38,0,0,0-2.41-2.26,12.77,12.77,0,0,0-1.32-.83l-.68-.36-.51-.24a71.32,71.32,0,0,0-8.66-3.37,58.16,58.16,0,0,0-16.69-2.91,28.73,28.73,0,0,0-4,.2,13.76,13.76,0,0,0-2.13.44,7.22,7.22,0,0,0-1.22.48,4,4,0,0,0-1.52,1.31,3,3,0,0,0-.34.68l-.06.2a2.23,2.23,0,0,0-.07.34v.11l0,.47a7.94,7.94,0,0,0,0,.87c0,.25.09.46.14.69a6.14,6.14,0,0,0,1.12,2.17,11,11,0,0,0,2.89,2.43,25.8,25.8,0,0,0,5.53,2.42c1.73.55,3.34.94,4.79,1.26a60,60,0,0,0,6.77,1.06c1.57.16,2.41.19,2.41.19l-2.3-.7c-1.49-.46-3.66-1.22-6.34-2.28-1.34-.54-2.8-1.18-4.31-2a26.81,26.81,0,0,1-4.54-2.83,7.31,7.31,0,0,1-1.68-1.84,2.05,2.05,0,0,1-.2-.52l.12,0a9.7,9.7,0,0,1,1.37-.11,24.06,24.06,0,0,1,3.3.22,48.7,48.7,0,0,1,7.2,1.54,67.59,67.59,0,0,1,7.52,2.56,64.23,64.23,0,0,1,7.5,3.64l.49.28.3.2a6.89,6.89,0,0,1,.58.42,4.55,4.55,0,0,1,.87.92,4.07,4.07,0,0,1,.75,2.22,6.49,6.49,0,0,1-.53,2.76,6.28,6.28,0,0,1-.69,1.25,4.54,4.54,0,0,1-.39.47l-.18.16,0,0,0,0h0l-.18.11-.42.2c-.28.13-.54.29-.83.4a14.46,14.46,0,0,1-1.77.63,18.23,18.23,0,0,1-3.86.67,32.15,32.15,0,0,1-8.58-.76c-1.47-.31-3-.7-4.43-1.13l-2.3-.72-2.28-.77a128.86,128.86,0,0,1-17.58-7.56,41.14,41.14,0,0,1-3.86-2.21,14.65,14.65,0,0,1-2.87-2.35,5.7,5.7,0,0,1-1.37-2.32,4.57,4.57,0,0,1,0-2.52,8.74,8.74,0,0,1,1.47-2.8,14,14,0,0,1,1.18-1.33c.41-.44.89-.85,1.28-1.18a24.37,24.37,0,0,1,6.76-3.71,37.44,37.44,0,0,1,14.65-1.94,61.34,61.34,0,0,1,12.9,2.35c3.81,1.14,7.14,2.33,9.86,3.36l8.57,3.33-2-1.33c-1.32-.84-3.24-2.14-5.77-3.62a91.55,91.55,0,0,0-9.44-5,54.44,54.44,0,0,0-13.5-4.27,45.89,45.89,0,0,0-8.29-.66,36.5,36.5,0,0,0-9,1.31,31.56,31.56,0,0,0-9,4,23.24,23.24,0,0,0-2.22,1.71,21.68,21.68,0,0,0-2,2,16.7,16.7,0,0,0-3.1,5.22,13.55,13.55,0,0,0-.72,3.31,12.24,12.24,0,0,0,.22,3.48,13.9,13.9,0,0,0,3,6.09,30,30,0,0,0,9,6.79,119.53,119.53,0,0,0,18.82,8.39l2.46.81,2.47.75c1.77.51,3.47.93,5.25,1.29a38.81,38.81,0,0,0,11.11.71,25.52,25.52,0,0,0,5.73-1.18,23.12,23.12,0,0,0,2.77-1.12c.45-.2.88-.47,1.32-.7l.65-.37a9.26,9.26,0,0,0,.8-.55l.5-.4.37-.33c.25-.23.45-.45.67-.69a13.12,13.12,0,0,0,1.09-1.42,14.6,14.6,0,0,0,1.51-3A14.21,14.21,0,0,0,2092.81,2163.45Zm-38-11.72,0,.09h0l.05-.23,0-.1Z"/><path class="cls-19" d="M2082.94,2168.89h0l0,0h0Z"/></g><g id="WORD_BUBBLES" data-name="WORD BUBBLES"><path class="cls-27" d="M861.59,134.65c-709,47.8-885.83,437.89-597.05,493S686.1,661.12,686.1,661.12s-43.68,43.38,15.46,160.15c0,0,16.39-99.26,101.55-164.39,0,0,82.21,1.92,305.34-39.88C1366,568.76,1526.72,107.48,861.59,134.65Z"/><path class="cls-27" d="M2043.72,168.06c-696.42-18.5-799.55,476.62-505.88,490.37,246.59,11.55,256.31-10,256.31-10S1812.9,749.5,1947,834.26c0,0-42.42-111.84-35.82-189.48,0,0,82.2,2.33,305.54-38.35C2474.46,559.49,2368.26,163.64,2043.72,168.06Z"/><path class="cls-15" d="M2140.46,314.77q-2.12,24.74-18,89.06-13.78,55.84-12.72,91.53,0,3.18-3.71,5.83t-6.89,1.94q-18-3.53-19.08-17.67-.36-7.42-.35-14.84,0-33.21,10.6-81.28,16.25-71,17.67-80.57.7-4.24,5.3-6a12.77,12.77,0,0,1,8.83-.35l12,3.53Q2140.81,308.77,2140.46,314.77Zm-34.28,215.57a17.45,17.45,0,0,1-1.41,9.72q-2.12,4.77-5.12,4.95a6.57,6.57,0,0,0-4.42,1.59,3,3,0,0,1-2.83,1.06q-18.74-7.07-21.2-18.38-1.06-5,6.71-10.07t11-4.77a22.89,22.89,0,0,1,11.13,4.95A15.42,15.42,0,0,1,2106.18,530.34Z"/><text class="cls-28" transform="matrix(1.2, -0.12, 0.1, 0.99, 1533.15, 547.73)"><tspan class="cls-29">N</tspan><tspan class="cls-30" x="141.71" y="0">a</tspan><tspan class="cls-31" x="265.48" y="0">n</tspan><tspan x="386.41" y="0">i</tspan></text><text class="cls-32" transform="translate(486.2 503.84) rotate(-10.19)">40<tspan class="cls-33" x="325" y="0">4</tspan><tspan class="cls-34" x="480.5" y="0">..</tspan><tspan x="602.99" y="0">.</tspan></text></g></svg>