<svg id="Layer_1" data-name="Layer 1" xmlns="http://www.w3.org/2000/svg" xmlns:xlink="http://www.w3.org/1999/xlink" viewBox="0 0 50 50"><defs><style>.cls-1{fill:url(#linear-gradient);}.cls-2{fill:url(#linear-gradient-2);}.cls-3{fill:url(#linear-gradient-3);}</style><linearGradient id="linear-gradient" x1="17.97" y1="22" x2="32.03" y2="22" gradientUnits="userSpaceOnUse"><stop offset="0.03" stop-color="#fff"/><stop offset="0.05" stop-color="#fcf9f1"/><stop offset="0.13" stop-color="#f3e8c6"/><stop offset="0.21" stop-color="#ead99f"/><stop offset="0.3" stop-color="#e3cc7f"/><stop offset="0.4" stop-color="#dec165"/><stop offset="0.5" stop-color="#d9b950"/><stop offset="0.62" stop-color="#d6b342"/><stop offset="0.76" stop-color="#d5b03a"/><stop offset="1" stop-color="#d4af37"/></linearGradient><linearGradient id="linear-gradient-2" x1="3.97" y1="28" x2="18.03" y2="28" gradientUnits="userSpaceOnUse"><stop offset="0" stop-color="#fff"/><stop offset="0.1" stop-color="#ededed"/><stop offset="0.26" stop-color="#d9d9d9"/><stop offset="0.43" stop-color="#cbcbcb"/><stop offset="0.64" stop-color="#c3c3c3"/><stop offset="1" stop-color="silver"/></linearGradient><linearGradient id="linear-gradient-3" x1="31.97" y1="28" x2="46.03" y2="28" gradientUnits="userSpaceOnUse"><stop offset="0.03" stop-color="#fff"/><stop offset="0.06" stop-color="#faf3ec"/><stop offset="0.14" stop-color="#f0d8c1"/><stop offset="0.22" stop-color="#e6c09a"/><stop offset="0.31" stop-color="#dfac7a"/><stop offset="0.4" stop-color="#d89b60"/><stop offset="0.5" stop-color="#d38f4b"/><stop offset="0.62" stop-color="#d0863d"/><stop offset="0.76" stop-color="#ce8135"/><stop offset="1" stop-color="#cd7f32"/></linearGradient></defs><title>app_logo</title><path class="cls-1" d="M26.91,23.68l.31-.7L32,16.68l-1.6-2.19H19.56L18,16.68,22.79,23l.31.7a3.22,3.22,0,1,0,3.82,0Zm-5.75-7h7.68L25,21.11ZM26.4,23l-.11.33a3.14,3.14,0,0,0-2.57,0L23.6,23h2.8ZM25,28.09a1.82,1.82,0,1,1,1.8-1.82A1.82,1.82,0,0,1,25,28.09Z"/><path class="cls-2" d="M12.91,29.68l.31-.7L18,22.68l-1.6-2.19H5.56L4,22.68,8.79,29l.31.7a3.22,3.22,0,1,0,3.82,0Zm-5.75-7h7.68L11,27.11ZM12.4,29l-.11.33a3.14,3.14,0,0,0-2.57,0L9.6,29h2.8ZM11,34.09a1.82,1.82,0,1,1,1.8-1.82A1.82,1.82,0,0,1,11,34.09Z"/><path class="cls-3" d="M40.91,29.68l.31-.7L46,22.68l-1.6-2.19H33.56L32,22.68,36.79,29l.31.7a3.22,3.22,0,1,0,3.82,0Zm-5.75-7h7.68L39,27.11ZM40.4,29l-.11.33a3.14,3.14,0,0,0-2.57,0L37.6,29h2.8ZM39,34.09a1.82,1.82,0,1,1,1.8-1.82A1.82,1.82,0,0,1,39,34.09Z"/></svg>